<?xml version="1.0" standalone="no"?>
<!DOCTYPE svg PUBLIC "-//W3C//DTD SVG 1.1//EN" "http://www.w3.org/Graphics/SVG/1.1/DTD/svg11.dtd" >
<svg xmlns="http://www.w3.org/2000/svg" xmlns:xlink="http://www.w3.org/1999/xlink" version="1.1">
<metadata>
Created by FontForge 20161013 at Thu Dec  3 23:00:53 2009
 By ,,,
</metadata>
<defs>
<font id="Orbitron-Light" horiz-adv-x="828" >
  <font-face 
    font-family="Orbitron"
    font-weight="300"
    font-stretch="normal"
    units-per-em="1000"
    panose-1="2 0 0 0 0 0 0 0 0 0"
    ascent="750"
    descent="-250"
    x-height="578"
    cap-height="720"
    bbox="-187 -243 1350 1011"
    underline-thickness="50"
    underline-position="-150"
    unicode-range="U+0020-E00C"
  />
<missing-glyph horiz-adv-x="0" 
 />
    <glyph glyph-name=".notdef" horiz-adv-x="0" 
 />
    <glyph glyph-name=".null" horiz-adv-x="0" 
 />
    <glyph glyph-name="nonmarkingreturn" horiz-adv-x="401" 
 />
    <glyph glyph-name="space" unicode=" " horiz-adv-x="272" 
 />
    <glyph glyph-name="space" unicode="&#xa0;" horiz-adv-x="272" 
 />
    <glyph glyph-name="exclam" unicode="!" horiz-adv-x="220" 
d="M58 0v82h82v-82h-82zM58 720h82v-517h-82v517z" />
    <glyph glyph-name="quotedbl" unicode="&#x22;" horiz-adv-x="372" 
d="M141 580h-82v140h82v-140zM296 580h-82v140h82v-140z" />
    <glyph glyph-name="numbersign" unicode="#" horiz-adv-x="797" 
d="M773 473h-121l-71 -220h159v-82h-185q-12 -41 -26 -85t-27 -86h-82l54 171h-260q-12 -41 -26 -85t-27 -86h-82l54 171h-101v82h127l71 220h-166v82h192l56 164h81l-57 -164h261l56 164h81l-57 -164h96v-82zM500 253l71 220h-260l-70 -220h259z" />
    <glyph glyph-name="dollar" unicode="$" horiz-adv-x="788" 
d="M762 571h-83v28q0 16 -11.5 27.5t-27.5 11.5h-201v-236h201q25 0 47.5 -9.5t39 -26t26 -38.5t9.5 -47v-160q0 -25 -9.5 -47t-26 -38.5t-39 -26t-47.5 -9.5h-201v-114h-82v114h-202q-25 0 -47 9.5t-38.5 26t-26 38.5t-9.5 47v29h82v-29q0 -16 11.5 -27.5t27.5 -11.5h202
v238h-202q-25 0 -47 9.5t-38.5 25.5t-26 38t-9.5 48v158q0 25 9.5 47.5t26 39t38.5 26t47 9.5h202v114h82v-114h201q25 0 47.5 -9.5t39 -26t26 -39t9.5 -47.5v-28zM439 320v-238h201q16 0 27.5 11.5t11.5 27.5v160q0 16 -11.5 27.5t-27.5 11.5h-201zM357 638h-202
q-16 0 -27.5 -11.5t-11.5 -27.5v-158q0 -16 11.5 -27.5t27.5 -11.5h202v236z" />
    <glyph glyph-name="percent" unicode="%" horiz-adv-x="966" 
d="M137 108l728 613v-107l-728 -614v108zM264 720q25 0 47.5 -9.5t39 -26t26 -39t9.5 -47.5v-84q0 -25 -9.5 -47t-26 -38.5t-39 -26t-47.5 -9.5h-94q-26 0 -48 9.5t-38.5 26t-26 38.5t-9.5 47v84q0 25 9.5 47.5t26 39t38.5 26t48 9.5h94zM286 454q16 0 27.5 11.5t11.5 27.5
v126q0 17 -11.5 28t-27.5 11h-138q-16 0 -27.5 -11t-11.5 -28v-126q0 -16 11.5 -27.5t27.5 -11.5h138zM811 326q25 0 47 -9.5t38.5 -26t26 -38.5t9.5 -47v-85q0 -25 -9.5 -47t-26 -38.5t-38.5 -26t-47 -9.5h-95q-26 0 -48 9.5t-38 26t-25.5 38.5t-9.5 47v85q0 25 9.5 47
t25.5 38.5t38 26t48 9.5h95zM832 60q16 0 27.5 11.5t11.5 27.5v127q0 16 -11.5 27.5t-27.5 11.5h-137q-16 0 -27.5 -11.5t-11.5 -27.5v-127q0 -16 11.5 -27.5t27.5 -11.5h137z" />
    <glyph glyph-name="ampersand" unicode="&#x26;" horiz-adv-x="938" 
d="M914 88v-72l-137 77q-17 -42 -48.5 -67.5t-69.5 -25.5h-485q-25 0 -47 9.5t-38.5 26t-26 38.5t-9.5 47v215q0 9 6 20.5t18.5 21t31 16.5t43.5 7q-36 27 -46.5 51.5t-10.5 44.5v100q0 25 9.5 47.5t26 39t38.5 26t47 9.5h411q21 0 40.5 -8.5t36 -23t28 -33t17.5 -37.5v-55
h-83v34q0 16 -11 27.5t-28 11.5h-411q-16 0 -27.5 -11.5t-11.5 -27.5v-139l521 -263v139h82v-166zM659 82q11 0 22 10t18 26l-510 257h-15q-16 0 -27.5 -11.5t-11.5 -27.5v-215q0 -16 11.5 -27.5t27.5 -11.5h485z" />
    <glyph glyph-name="quotesingle" unicode="'" horiz-adv-x="224" 
d="M141 580h-82v140h82v-140z" />
    <glyph glyph-name="parenleft" unicode="(" horiz-adv-x="277" 
d="M202 82v-82h-29q-25 0 -47 9.5t-38.5 26t-26 38.5t-9.5 47v477q0 25 9.5 47.5t26 39t38.5 26t47 9.5h29v-83h-29q-16 0 -27.5 -11.5t-11.5 -27.5v-477q0 -16 11.5 -27.5t27.5 -11.5h29z" />
    <glyph glyph-name="parenright" unicode=")" horiz-adv-x="278" 
d="M56 82h28q17 0 28 11.5t11 27.5v477q0 16 -11 27.5t-28 11.5h-28v83h28q25 0 47.5 -9.5t39 -26t26 -39t9.5 -47.5v-477q0 -25 -9.5 -47t-26 -38.5t-39 -26t-47.5 -9.5h-28v82z" />
    <glyph glyph-name="asterisk" unicode="*" horiz-adv-x="491" 
d="M450 535l-146 -47q9 -13 20 -29t23 -32.5l24 -33t23 -30.5q-20 -14 -33.5 -24.5t-32.5 -23.5l-91 123l-90 -123q-20 15 -34 24t-33 23l90 126l-145 47l24 79l147 -49v154h82v-153l145 48z" />
    <glyph glyph-name="plus" unicode="+" horiz-adv-x="433" 
d="M251 490v-153h156v-82h-156v-155h-82v155h-152v82h152v153h82z" />
    <glyph glyph-name="comma" unicode="," horiz-adv-x="193" 
d="M136 82v-98q0 -41 -23 -72t-59 -43v213h82z" />
    <glyph glyph-name="hyphen" unicode="-" horiz-adv-x="517" 
d="M449 255h-390v82h390v-82z" />
    <glyph glyph-name="period" unicode="." horiz-adv-x="214" 
d="M136 0h-82v82h82v-82z" />
    <glyph glyph-name="slash" unicode="/" horiz-adv-x="521" 
d="M512 720v-104l-506 -616v106z" />
    <glyph glyph-name="zero" unicode="0" horiz-adv-x="834" 
d="M663 720q25 0 47 -9.5t38.5 -26t26 -39t9.5 -47.5v-477q0 -25 -9.5 -47t-26 -38.5t-38.5 -26t-47 -9.5h-485q-26 0 -48 9.5t-38 26t-25.5 38.5t-9.5 47v477q0 25 9.5 47.5t25.5 39t38 26t48 9.5h485zM178 637q-16 0 -27.5 -11.5t-11.5 -27.5v-417l552 456h-513zM663 82
q16 0 27.5 11.5t11.5 27.5v417l-553 -456h514z" />
    <glyph glyph-name="one" unicode="1" horiz-adv-x="391" 
d="M190 720h112v-720h-83v628q-10 -13 -24.5 -30t-30 -35.5t-30.5 -36.5t-26 -31h-107z" />
    <glyph glyph-name="two" unicode="2" horiz-adv-x="830" 
d="M663 721q25 0 47 -9.5t38.5 -26t26 -39t9.5 -47.5v-169q0 -25 -9.5 -47t-26 -38.5t-38.5 -26t-47 -9.5h-485q-16 0 -27.5 -11.5t-11.5 -27.5v-149q0 -16 11.5 -27.5t27.5 -11.5h606v-82h-727v270q0 25 9.5 47.5t25.5 38.5t38 25.5t48 9.5h485q16 0 27.5 11.5t11.5 27.5
v169q0 16 -11.5 27.5t-27.5 11.5h-485q-16 0 -27.5 -11.5t-11.5 -27.5v-28h-82v28q0 25 9.5 47.5t25.5 39t38 26t48 9.5h485z" />
    <glyph glyph-name="three" unicode="3" horiz-adv-x="826" 
d="M741 378q18 -17 29 -40.5t11 -49.5v-167q0 -25 -9.5 -47t-26 -38.5t-38.5 -26t-47 -9.5h-485q-26 0 -48 9.5t-38.5 26t-26 38.5t-9.5 47v16h83v-16q0 -16 11.5 -27.5t27.5 -11.5h485q16 0 27.5 11.5t11.5 27.5v167q0 16 -11.5 27.5t-27.5 11.5h-469v82h437
q16 0 27.5 11.5t11.5 27.5v151q0 16 -11.5 27.5t-27.5 11.5h-453q-16 0 -27.5 -11.5t-11.5 -27.5v-26h-83v26q0 25 9.5 47.5t26 39t38.5 26t48 9.5h453q25 0 47.5 -9.5t38.5 -26t25.5 -39t9.5 -47.5v-151q0 -14 -3.5 -27.5t-8.5 -24.5z" />
    <glyph glyph-name="four" unicode="4" horiz-adv-x="730" 
d="M702 268v-82h-112v-186h-82v186h-502v92q125 112 246.5 221t245.5 222h92v-453h112zM111 268h397v322z" />
    <glyph glyph-name="five" unicode="5" horiz-adv-x="830" 
d="M139 452q0 -17 11.5 -28.5t27.5 -11.5h485q25 0 47 -9.5t38.5 -25.5t26 -38.5t9.5 -47.5v-170q0 -25 -9.5 -47t-26 -38.5t-38.5 -26t-47 -9.5h-485q-26 0 -48 9.5t-38 26t-25.5 38.5t-9.5 47v29h82v-29q0 -16 11.5 -27.5t27.5 -11.5h485q16 0 27.5 11.5t11.5 27.5v170
q0 16 -11.5 27.5t-27.5 11.5h-606v391h727v-83h-606q-16 0 -27.5 -11.5t-11.5 -27.5v-147z" />
    <glyph glyph-name="six" unicode="6" horiz-adv-x="820" 
d="M663 415q25 0 47 -9.5t38.5 -25.5t26 -38.5t9.5 -47.5v-173q0 -25 -9.5 -47t-26 -38.5t-38.5 -26t-47 -9.5h-485q-26 0 -48 9.5t-38 26t-25.5 38.5t-9.5 47v478q0 25 9.5 47.5t25.5 39t38 26t48 9.5h480v-83h-480q-16 0 -27.5 -11.5t-11.5 -27.5v-144q0 -17 11.5 -28.5
t27.5 -11.5h485zM702 294q0 16 -11.5 27.5t-27.5 11.5h-524v-212q0 -16 11.5 -27.5t27.5 -11.5h485q16 0 27.5 11.5t11.5 27.5v173z" />
    <glyph glyph-name="seven" unicode="7" horiz-adv-x="660" 
d="M3 638v83h480q25 0 47 -9.5t38.5 -26t26 -39t9.5 -47.5v-599h-82v599q0 16 -11.5 27.5t-27.5 11.5h-480z" />
    <glyph glyph-name="eight" unicode="8" horiz-adv-x="834" 
d="M784 452q0 -40 -30 -81q30 -39 30 -80v-170q0 -25 -9.5 -47t-26 -38.5t-38.5 -26t-47 -9.5h-485q-26 0 -48 9.5t-38 26t-25.5 38.5t-9.5 47v170q0 41 30 80q-30 41 -30 81v147q0 25 9.5 47.5t25.5 39t38 26t48 9.5h485q21 0 40.5 -8.5t35.5 -23t27.5 -33t17.5 -37.5v-167
zM702 291q0 16 -11.5 27.5t-27.5 11.5h-485q-16 0 -27.5 -11.5t-11.5 -27.5v-170q0 -16 11.5 -27.5t27.5 -11.5h485q16 0 27.5 11.5t11.5 27.5v170zM702 598q0 16 -11.5 27.5t-27.5 11.5h-485q-16 0 -27.5 -11.5t-11.5 -27.5v-158q0 -16 11.5 -27.5t27.5 -11.5h485
q16 0 27.5 11.5t11.5 27.5v158z" />
    <glyph glyph-name="nine" unicode="9" 
d="M173 305q-26 0 -48 9.5t-38.5 26t-26 38.5t-9.5 47v173q0 25 9.5 47.5t26 39t38.5 26t48 9.5h485q25 0 47 -9.5t38.5 -26t26 -39t9.5 -47.5v-478q0 -25 -9.5 -47t-26 -38.5t-38.5 -26t-47 -9.5h-485q-40 0 -71.5 23t-43.5 59h600q16 0 27.5 11.5t11.5 27.5v145
q0 16 -11.5 27.5t-27.5 11.5h-485zM134 426q0 -16 11.5 -27.5t27.5 -11.5h524v212q0 16 -11.5 27.5t-27.5 11.5h-485q-16 0 -27.5 -11.5t-11.5 -27.5v-173z" />
    <glyph glyph-name="colon" unicode=":" horiz-adv-x="214" 
d="M136 82v-82h-82v82h82zM136 506h-82v82h82v-82z" />
    <glyph glyph-name="semicolon" unicode=";" horiz-adv-x="193" 
d="M133 506h-82v82h82v-82zM133 82v-98q0 -41 -23 -72t-59 -43v213h82z" />
    <glyph glyph-name="less" unicode="&#x3c;" horiz-adv-x="473" 
d="M407 111v-95l-402 232v97l402 231v-95l-320 -185z" />
    <glyph glyph-name="equal" unicode="=" horiz-adv-x="638" 
d="M576 151h-517v82h517v-82zM576 351h-517v82h517v-82z" />
    <glyph glyph-name="greater" unicode="&#x3e;" horiz-adv-x="475" 
d="M59 109l320 185l-320 185v95l402 -231v-97q-104 -59 -201.5 -116t-200.5 -116v95z" />
    <glyph glyph-name="question" unicode="?" horiz-adv-x="678" 
d="M548 719q25 0 47 -9.5t38.5 -26t26 -39t9.5 -47.5v-194q0 -25 -9.5 -47t-26 -38.5t-38.5 -26t-47 -9.5h-274q-16 0 -27.5 -11.5t-11.5 -27.5v-42h-82v42q0 25 9.5 47.5t26 38.5t38.5 25.5t47 9.5h274q16 0 27.5 11.5t11.5 27.5v194q0 16 -11.5 27.5t-27.5 11.5h-517v84z
M153 0v82h82v-82h-82z" />
    <glyph glyph-name="at" unicode="@" horiz-adv-x="831" 
d="M468 519q25 0 47 -9.5t38.5 -26t26 -38.5t9.5 -47v-144h113v344q0 16 -11.5 27.5t-27.5 11.5h-485q-16 0 -27.5 -11.5t-11.5 -27.5v-477q0 -16 11.5 -27.5t27.5 -11.5h606v-82h-606q-26 0 -48 9.5t-38 26t-25.5 38.5t-9.5 47v477q0 25 9.5 47.5t25.5 39t38 26t48 9.5h485
q25 0 47 -9.5t38.5 -26t26 -39t9.5 -47.5v-406h-411q-26 0 -48 9.5t-38 26t-25.5 38.5t-9.5 48v84q0 25 9.5 47t25.5 38.5t38 26t48 9.5h95zM528 254v165q0 16 -11.5 27.5t-27.5 11.5h-137q-16 0 -27.5 -11.5t-11.5 -27.5v-126q0 -17 11.5 -28t27.5 -11h176z" />
    <glyph glyph-name="A" unicode="A" horiz-adv-x="836" 
d="M658 720q25 0 47 -9.5t38 -25.5t25.5 -38t9.5 -47v-600h-81v263h-558v-263h-81v600q0 25 9.5 47t25.5 38t38 25.5t47 9.5h480zM697 344v256q0 16 -11.5 27.5t-27.5 11.5h-480q-16 0 -27.5 -11.5t-11.5 -27.5v-256h558z" />
    <glyph glyph-name="B" unicode="B" horiz-adv-x="832" 
d="M739 377q18 -17 29 -40t11 -49v-168q0 -25 -9.5 -47t-25.5 -38t-38 -25.5t-47 -9.5h-600v720h569q25 0 47 -9.5t38 -25.5t25.5 -38t9.5 -47v-153q0 -27 -13 -53zM179 639q-16 0 -27.5 -11.5t-11.5 -27.5v-153q0 -16 11.5 -27.5t27.5 -11.5h449q16 0 27 11.5t11 27.5v153
q0 16 -11 27.5t-27 11.5h-449zM698 288q0 16 -11.5 27.5t-27.5 11.5h-480q-16 0 -27.5 -11.5t-11.5 -27.5v-168q0 -16 11.5 -27.5t27.5 -11.5h480q16 0 27.5 11.5t11.5 27.5v168z" />
    <glyph glyph-name="C" unicode="C" horiz-adv-x="822" 
d="M176 639q-16 0 -27.5 -11.5t-11.5 -27.5v-480q0 -16 11.5 -27.5t27.5 -11.5h598v-81h-598q-25 0 -47 9.5t-38 25.5t-25.5 38t-9.5 47v480q0 25 9.5 47t25.5 38t38 25.5t47 9.5h598v-81h-598z" />
    <glyph glyph-name="D" unicode="D" horiz-adv-x="834" 
d="M658 720q25 0 47 -9.5t38 -25.5t25.5 -38t9.5 -47v-480q0 -25 -9.5 -47t-25.5 -38t-38 -25.5t-47 -9.5h-600v720h600zM697 600q0 16 -11.5 27.5t-27.5 11.5h-480q-16 0 -27.5 -11.5t-11.5 -27.5v-480q0 -16 11.5 -27.5t27.5 -11.5h480q16 0 27.5 11.5t11.5 27.5v480z" />
    <glyph glyph-name="E" unicode="E" horiz-adv-x="766" 
d="M715 639h-576v-238h463v-82h-463v-238h576v-81h-657v720h657v-81z" />
    <glyph glyph-name="F" unicode="F" horiz-adv-x="723" 
d="M715 720v-81h-576v-238h463v-82h-463v-319h-81v720h657z" />
    <glyph glyph-name="G" unicode="G" horiz-adv-x="830" 
d="M776 571h-81v29q0 16 -11.5 27.5t-27.5 11.5h-480q-16 0 -27.5 -11.5t-11.5 -27.5v-480q0 -16 11.5 -27.5t27.5 -11.5h480q16 0 27.5 11.5t11.5 27.5v178h-178v82h259v-260q0 -25 -9.5 -47t-25.5 -38t-38 -25.5t-47 -9.5h-480q-25 0 -47 9.5t-38 25.5t-25.5 38t-9.5 47
v480q0 25 9.5 47t25.5 38t38 25.5t47 9.5h480q25 0 47 -9.5t38 -25.5t25.5 -38t9.5 -47v-29z" />
    <glyph glyph-name="H" unicode="H" horiz-adv-x="851" 
d="M795 720v-720h-82v319h-575v-319h-81v720h81v-319h575v319h82z" />
    <glyph glyph-name="I" unicode="I" horiz-adv-x="220" 
d="M57 720h81v-720h-81v720z" />
    <glyph glyph-name="J" unicode="J" horiz-adv-x="780" 
d="M643 720h81v-600q0 -25 -9.5 -47t-25.5 -38t-38 -25.5t-47 -9.5h-480q-25 0 -47 9.5t-38 25.5t-25.5 38t-9.5 47v57h81v-57q0 -16 11.5 -27.5t27.5 -11.5h480q16 0 27.5 11.5t11.5 27.5v600z" />
    <glyph glyph-name="K" unicode="K" horiz-adv-x="797" 
d="M743 720l-301 -360l302 -360h-105l-268 319h-232v-319h-82v720h82v-319h232q66 78 134 159.5t134 159.5h104z" />
    <glyph glyph-name="L" unicode="L" horiz-adv-x="779" 
d="M57 721h81v-640h639v-81h-720v721z" />
    <glyph glyph-name="M" unicode="M" horiz-adv-x="928" 
d="M765 720h111v-720h-81v628l-329 -391l-329 391v-628h-81v720h111l299 -356z" />
    <glyph glyph-name="N" unicode="N" horiz-adv-x="832" 
d="M695 720h81v-720h-111l-528 628v-628h-81v720h111l528 -628v628z" />
    <glyph glyph-name="O" unicode="O" 
d="M654 720q25 0 47 -9.5t38 -25.5t25.5 -38t9.5 -47v-480q0 -25 -9.5 -47t-25.5 -38t-38 -25.5t-47 -9.5h-480q-25 0 -47 9.5t-38 25.5t-25.5 38t-9.5 47v480q0 25 9.5 47t25.5 38t38 25.5t47 9.5h480zM654 81q16 0 27.5 11.5t11.5 27.5v480q0 16 -11.5 27.5t-27.5 11.5
h-480q-16 0 -27.5 -11.5t-11.5 -27.5v-480q0 -16 11.5 -27.5t27.5 -11.5h480z" />
    <glyph glyph-name="P" unicode="P" horiz-adv-x="791" 
d="M656 719q25 0 47 -9.5t38 -26t25.5 -38t9.5 -46.5v-211q0 -25 -9.5 -46.5t-25.5 -38t-38 -26t-47 -9.5h-480q-7 0 -17.5 1t-21.5 3v-272h-81v719h600zM695 599q0 16 -11.5 27.5t-27.5 11.5h-480q-16 0 -27.5 -11.5t-11.5 -27.5v-211q0 -16 11.5 -27t27.5 -11h480
q16 0 27.5 11t11.5 27v211z" />
    <glyph glyph-name="Q" unicode="Q" horiz-adv-x="884" 
d="M868 81v-81h-694q-25 0 -47 9.5t-38 25.5t-25.5 38t-9.5 47v480q0 25 9.5 47t25.5 38t38 25.5t47 9.5h480q25 0 47 -9.5t38 -25.5t25.5 -38t9.5 -47v-480q0 -7 -1 -17.5t-3 -21.5h98zM654 81q16 0 27.5 11.5t11.5 27.5v480q0 16 -11.5 27.5t-27.5 11.5h-480
q-16 0 -27.5 -11.5t-11.5 -27.5v-480q0 -16 11.5 -27.5t27.5 -11.5h480z" />
    <glyph glyph-name="R" unicode="R" horiz-adv-x="825" 
d="M775 388q0 -25 -9.5 -46.5t-25.5 -38t-38 -26t-47 -9.5h-110l226 -268h-107l-225 268h-264q-8 0 -18 1t-21 3v-272h-81v719h600q25 0 47 -9.5t38 -26t25.5 -38t9.5 -46.5v-211zM655 350q16 0 27 11t11 27v211q0 16 -11 27.5t-27 11.5h-480q-16 0 -27.5 -11.5t-11.5 -27.5
v-211q0 -16 11.5 -27t27.5 -11h480z" />
    <glyph glyph-name="S" unicode="S" horiz-adv-x="822" 
d="M771 572h-81v28q0 16 -11.5 27.5t-27.5 11.5h-480q-16 0 -27.5 -11.5t-11.5 -27.5v-161q0 -16 11.5 -27t27.5 -11h480q25 0 47 -9.5t38 -26t25.5 -38t9.5 -46.5v-161q0 -25 -9.5 -47t-25.5 -38t-38 -25.5t-47 -9.5h-480q-25 0 -47 9.5t-38 25.5t-25.5 38t-9.5 47v28h81
v-28q0 -16 11.5 -27.5t27.5 -11.5h480q16 0 27.5 11.5t11.5 27.5v161q0 16 -11.5 27t-27.5 11h-480q-25 0 -47 9.5t-38 26t-25.5 38t-9.5 46.5v161q0 25 9.5 47t25.5 38t38 25.5t47 9.5h480q25 0 47 -9.5t38 -25.5t25.5 -38t9.5 -47v-28z" />
    <glyph glyph-name="T" unicode="T" horiz-adv-x="759" 
d="M740 720v-81h-319v-639h-81v639h-320v81h720z" />
    <glyph glyph-name="U" unicode="U" 
d="M693 720h81v-600q0 -25 -9.5 -47t-25.5 -38t-38 -25.5t-47 -9.5h-480q-25 0 -47 9.5t-38 25.5t-25.5 38t-9.5 47v600h81v-600q0 -16 11.5 -27.5t27.5 -11.5h480q16 0 27.5 11.5t11.5 27.5v600z" />
    <glyph glyph-name="V" unicode="V" horiz-adv-x="1003" 
d="M867 720h95q-54 -93 -105.5 -182.5t-102.5 -178t-102.5 -177.5t-105.5 -182h-94q-106 183 -209.5 360t-207.5 360h95l369 -641z" />
    <glyph glyph-name="W" unicode="W" horiz-adv-x="1179" 
d="M1148 720l-262 -720h-71l-224 615l-224 -615h-70l-262 720h86l211 -578q24 66 50.5 139.5t54 148.5t54.5 149t51 141h98l211 -578q24 66 50.5 139.5t53.5 148.5t54 149t51 141h88z" />
    <glyph glyph-name="X" unicode="X" horiz-adv-x="812" 
d="M755 720l-302 -360q73 -88 150.5 -180t152.5 -180h-105l-250 297l-251 -297h-104l302 360l-302 360h104l251 -297l250 297h104z" />
    <glyph glyph-name="Y" unicode="Y" horiz-adv-x="806" 
d="M760 720l-331 -449v-271h-81v271q-81 111 -165 224.5t-166 224.5h93l279 -352q66 85 138 176t138 176h95z" />
    <glyph glyph-name="Z" unicode="Z" horiz-adv-x="821" 
d="M51 720h720v-111l-628 -528h628v-81h-720v111l628 528h-628v81z" />
    <glyph glyph-name="bracketleft" unicode="[" horiz-adv-x="275" 
d="M54 721h150v-83h-68v-556h68v-82h-150v721z" />
    <glyph glyph-name="backslash" unicode="\" horiz-adv-x="520" 
d="M511 1l-506 620v104l506 -618v-106z" />
    <glyph glyph-name="bracketright" unicode="]" horiz-adv-x="276" 
d="M51 721h150v-721h-150v82h67v556h-67v83z" />
    <glyph glyph-name="underscore" unicode="_" 
d="M782 -82h-728v82h728v-82z" />
    <glyph glyph-name="grave" unicode="`" horiz-adv-x="213" 
d="M147 872h-80q-10 40 -17.5 70.5t-17.5 68.5h81z" />
    <glyph glyph-name="a" unicode="a" horiz-adv-x="694" 
d="M521 580q25 0 47.5 -9.5t39 -26t26 -38.5t9.5 -47v-459h-470q-25 0 -47 9.5t-38.5 26t-26 38.5t-9.5 47v210h508v128q0 16 -11 27.5t-28 11.5h-469v82h469zM560 249h-426v-128q0 -16 11.5 -27.5t27.5 -11.5h387v167z" />
    <glyph glyph-name="b" unicode="b" horiz-adv-x="667" 
d="M524 580q25 0 47 -9.5t38.5 -26t26 -38.5t9.5 -47v-338q0 -25 -9.5 -47t-26 -38.5t-38.5 -26t-47 -9.5h-470v770h82v-190h388zM563 459q0 16 -11.5 27.5t-27.5 11.5h-348q-17 0 -28.5 -11.5t-11.5 -27.5v-338q0 -16 11.5 -27.5t28.5 -11.5h348q16 0 27.5 11.5t11.5 27.5
v338z" />
    <glyph glyph-name="c" unicode="c" horiz-adv-x="695" 
d="M642 82v-82h-470q-25 0 -47 9.5t-38.5 26t-26 38.5t-9.5 47v338q0 25 9.5 47t26 38.5t38.5 26t47 9.5h468v-82h-468q-16 0 -27.5 -11.5t-11.5 -27.5v-338q0 -16 11.5 -27.5t27.5 -11.5h470z" />
    <glyph glyph-name="d" unicode="d" horiz-adv-x="667" 
d="M614 770v-770h-469q-26 0 -48 9.5t-38.5 26t-26 38.5t-9.5 47v338q0 25 9.5 47t26 38.5t38.5 26t48 9.5h387v190h82zM493 82q16 0 27.5 11.5t11.5 27.5v338q0 16 -11.5 27.5t-27.5 11.5h-348q-16 0 -27.5 -11.5t-11.5 -27.5v-338q0 -16 11.5 -27.5t27.5 -11.5h348z" />
    <glyph glyph-name="e" unicode="e" horiz-adv-x="692" 
d="M520 580q25 0 47.5 -9.5t39 -26t26 -38.5t9.5 -47v-210h-509v-128q0 -16 11.5 -27.5t27.5 -11.5h470v-82h-470q-25 0 -47 9.5t-38.5 26t-26 38.5t-9.5 47v338q0 25 9.5 47t26 38.5t38.5 26t47 9.5h348zM559 331v128q0 16 -11 27.5t-28 11.5h-348q-16 0 -27.5 -11.5
t-11.5 -27.5v-128h426z" />
    <glyph glyph-name="f" unicode="f" horiz-adv-x="407" 
d="M174 688q-16 0 -27.5 -11.5t-11.5 -27.5v-69h251v-82h-251v-498h-82v649q0 25 9.5 47.5t25.5 38.5t38 25.5t48 9.5h212v-82h-212z" />
    <glyph glyph-name="g" unicode="g" horiz-adv-x="683" 
d="M631 -107q0 -26 -9.5 -48t-25.5 -38.5t-38.5 -26t-47.5 -9.5h-362v83h362q16 0 27.5 11.5t11.5 27.5v107h-387q-25 0 -47 9.5t-38.5 26t-26 38.5t-9.5 47v338q0 25 9.5 47t26 38.5t38.5 26t47 9.5h348q25 0 47.5 -9.5t38.5 -26t25.5 -38.5t9.5 -47v-566zM510 82
q16 0 27.5 11.5t11.5 27.5v338q0 16 -11.5 27.5t-27.5 11.5h-348q-16 0 -27.5 -11.5t-11.5 -27.5v-338q0 -16 11.5 -27.5t27.5 -11.5h348z" />
    <glyph glyph-name="h" unicode="h" horiz-adv-x="668" 
d="M524 580q25 0 47 -9.5t38.5 -26t26 -38.5t9.5 -47v-459h-82v459q0 16 -11.5 27.5t-27.5 11.5h-348q-17 0 -28.5 -11.5t-11.5 -27.5v-459h-82v770h82v-190h388z" />
    <glyph glyph-name="i" unicode="i" horiz-adv-x="208" 
d="M52 580h82v-580h-82v580zM134 770v-82h-82v82h82z" />
    <glyph glyph-name="j" unicode="j" horiz-adv-x="239" 
d="M180 770v-82h-83v82h83zM180 -121q0 -26 -9.5 -48t-26 -38.5t-39 -26t-47.5 -9.5h-245v83h245q16 0 27.5 11.5t11.5 27.5v701h83v-701z" />
    <glyph glyph-name="k" unicode="k" horiz-adv-x="646" 
d="M632 580l-263 -290l262 -290h-107l-228 249h-160v-249h-82v770h82v-439h160l228 249h108z" />
    <glyph glyph-name="l" unicode="l" horiz-adv-x="302" 
d="M134 770v-649q0 -16 11.5 -27.5t27.5 -11.5h98v-82h-98q-25 0 -47 9.5t-38.5 26t-26 38.5t-9.5 47v649h82z" />
    <glyph glyph-name="m" unicode="m" horiz-adv-x="978" 
d="M820 580q25 0 47.5 -9.5t38.5 -26t25.5 -38.5t9.5 -47v-459h-81v459q0 16 -11.5 27.5t-28.5 11.5h-241q-17 0 -28 -11.5t-11 -27.5v-459h-83v459q0 16 -11.5 27.5t-27.5 11.5h-242q-16 0 -27.5 -11.5t-11.5 -27.5v-459h-83v580h766z" />
    <glyph glyph-name="n" unicode="n" horiz-adv-x="696" 
d="M524 580q25 0 47 -9.5t38.5 -26t26 -38.5t9.5 -47v-459h-82v459q0 16 -11.5 27.5t-27.5 11.5h-348q-17 0 -28.5 -11.5t-11.5 -27.5v-459h-82v580h470z" />
    <glyph glyph-name="o" unicode="o" horiz-adv-x="692" 
d="M520 580q25 0 47.5 -9.5t39 -26t26 -38.5t9.5 -47v-338q0 -25 -9.5 -47t-26 -38.5t-39 -26t-47.5 -9.5h-348q-25 0 -47 9.5t-38.5 26t-26 38.5t-9.5 47v338q0 25 9.5 47t26 38.5t38.5 26t47 9.5h348zM172 498q-16 0 -27.5 -11.5t-11.5 -27.5v-338q0 -16 11.5 -27.5
t27.5 -11.5h348q17 0 28 11.5t11 27.5v338q0 16 -11 27.5t-28 11.5h-348z" />
    <glyph glyph-name="p" unicode="p" horiz-adv-x="664" 
d="M524 580q25 0 47 -9.5t38.5 -26t26 -38.5t9.5 -47v-338q0 -25 -9.5 -47t-26 -38.5t-38.5 -26t-47 -9.5h-388v-230h-82v810h470zM563 459q0 16 -11.5 27.5t-27.5 11.5h-348q-17 0 -28.5 -11.5t-11.5 -27.5v-338q0 -16 11.5 -27.5t28.5 -11.5h348q16 0 27.5 11.5t11.5 27.5
v338z" />
    <glyph glyph-name="q" unicode="q" horiz-adv-x="664" 
d="M20 459q0 25 9.5 47t26 38.5t38.5 26t48 9.5h469v-810h-82v230h-387q-26 0 -48 9.5t-38.5 26t-26 38.5t-9.5 47v338zM103 121q0 -16 11 -27.5t28 -11.5h348q16 0 27.5 11.5t11.5 27.5v338q0 16 -11.5 27.5t-27.5 11.5h-348q-17 0 -28 -11.5t-11 -27.5v-338z" />
    <glyph glyph-name="r" unicode="r" horiz-adv-x="512" 
d="M499 580v-82h-326q-16 0 -27.5 -11.5t-11.5 -27.5v-459h-82v459q0 25 9.5 47t26 38.5t38.5 26t47 9.5h326z" />
    <glyph glyph-name="s" unicode="s" horiz-adv-x="686" 
d="M639 451h-83v8q0 16 -11.5 27.5t-27.5 11.5h-348q-16 0 -27.5 -11.5t-11.5 -27.5v-89q0 -16 11.5 -27.5t27.5 -11.5h348q25 0 47.5 -9.5t39 -26t26 -38.5t9.5 -47v-89q0 -25 -9.5 -47t-26 -38.5t-39 -26t-47.5 -9.5h-348q-25 0 -47 9.5t-38.5 26t-26 38.5t-9.5 47v8h82
v-8q0 -16 11.5 -27.5t27.5 -11.5h348q16 0 27.5 11.5t11.5 27.5v89q0 16 -11.5 27.5t-27.5 11.5h-348q-25 0 -47 9.5t-38.5 26t-26 38.5t-9.5 47v89q0 25 9.5 47t26 38.5t38.5 26t47 9.5h348q25 0 47.5 -9.5t39 -26t26 -38.5t9.5 -47v-8z" />
    <glyph glyph-name="t" unicode="t" horiz-adv-x="410" 
d="M135 498v-377q0 -16 11.5 -27.5t27.5 -11.5h212v-82h-212q-26 0 -48 9.5t-38 26t-25.5 38.5t-9.5 47v649h82v-190h251v-82h-251z" />
    <glyph glyph-name="u" unicode="u" horiz-adv-x="695" 
d="M644 580v-459q0 -25 -9.5 -47t-26 -38.5t-39 -26t-47.5 -9.5h-348q-25 0 -47 9.5t-38.5 26t-26 38.5t-9.5 47v459h82v-459q0 -16 11.5 -27.5t27.5 -11.5h348q17 0 28.5 11.5t11.5 27.5v459h82z" />
    <glyph glyph-name="v" unicode="v" horiz-adv-x="790" 
d="M757 580l-321 -580h-95q-80 147 -160 290.5t-160 289.5h96l272 -500l272 500h96z" />
    <glyph glyph-name="w" unicode="w" horiz-adv-x="1071" 
d="M1046 580l-219 -580h-71l-216 479l-205 -479h-72q-59 149 -114.5 290.5t-113.5 289.5h88l176 -432l187 432h108l199 -431l164 431h89z" />
    <glyph glyph-name="x" unicode="x" horiz-adv-x="692" 
d="M638 580l-242 -285l243 -295h-108l-189 232q-44 -54 -93.5 -116t-94.5 -116h-108l242 295l-242 285h108l188 -220q21 25 45 53t48.5 56.5l49 57t46.5 53.5h107z" />
    <glyph glyph-name="y" unicode="y" horiz-adv-x="685" 
d="M632 -108q0 -26 -9.5 -48t-25.5 -38.5t-38.5 -26t-47.5 -9.5h-362v83h362q16 0 27.5 11.5t11.5 27.5v108h-387q-25 0 -47 9.5t-38.5 26t-26 38.5t-9.5 47v457h82v-457q0 -16 11.5 -27.5t27.5 -11.5h348q16 0 27.5 11.5t11.5 27.5v457h82v-686z" />
    <glyph glyph-name="z" unicode="z" horiz-adv-x="698" 
d="M54 580h591v-112l-501 -386h501v-82h-591v112l501 386h-501v82z" />
    <glyph glyph-name="braceleft" unicode="{" horiz-adv-x="289" 
d="M152 121q0 -16 11.5 -27.5t27.5 -11.5h29v-82h-29q-25 0 -47 9.5t-38.5 26t-26 38.5t-9.5 47v163q-9 5 -22.5 13.5t-24.5 15.5v96l47 25v164q0 25 9.5 47.5t26 39t38.5 26t47 9.5h29v-83h-29q-16 0 -27.5 -11.5t-11.5 -27.5v-171l-84 -67l84 -69v-170z" />
    <glyph glyph-name="bar" unicode="|" horiz-adv-x="214" 
d="M54 842h82v-957h-82v957z" />
    <glyph glyph-name="braceright" unicode="}" horiz-adv-x="289" 
d="M119 290l84 69l-84 66v173q0 16 -11.5 27.5t-27.5 11.5h-29v83h29q25 0 47 -9.5t38.5 -26t26 -39t9.5 -47.5v-164q11 -5 23 -13t23 -14v-95l-46 -29v-162q0 -25 -9.5 -47t-26 -38.5t-38.5 -26t-47 -9.5h-29v82h29q16 0 27.5 11.5t11.5 27.5v169z" />
    <glyph glyph-name="asciitilde" unicode="~" horiz-adv-x="404" 
d="M297 283q32 0 66 16v-41q-14 -5 -31 -9t-35 -4q-27 0 -52 11t-50.5 24.5t-52 24.5t-56.5 11q-12 0 -29.5 -1.5t-32.5 -6.5v37q27 9 62 9q28 0 54 -10t51 -22.5t50.5 -24t53.5 -14.5h2z" />
    <glyph glyph-name="exclamdown" unicode="&#xa1;" horiz-adv-x="210" 
d="M135 645h-82v83h82v-83zM53 0v517h82v-517h-82z" />
    <glyph glyph-name="cent" unicode="&#xa2;" horiz-adv-x="636" 
d="M369 508v-426h252v-82h-252v-115h-82v115h-133q-26 0 -48 9.5t-38 26t-25.5 38.5t-9.5 47v348q0 25 9.5 47.5t25.5 39t38 26t48 9.5h133v135h82v-135h252v-83h-252zM287 508h-133q-16 0 -27.5 -11.5t-11.5 -27.5v-348q0 -16 11.5 -27.5t27.5 -11.5h133v426z" />
    <glyph glyph-name="sterling" unicode="&#xa3;" horiz-adv-x="734" 
d="M608 583v15q0 16 -11 27.5t-28 11.5h-303q-16 0 -27.5 -11.5t-11.5 -27.5v-193h352v-82h-352v-241h464v-82h-652v82h105v241h-105v82h105v193q0 25 9.5 47.5t26 39t38.5 26t48 9.5h303q25 0 47.5 -9.5t39 -26t26 -39t9.5 -47.5v-15h-83z" />
    <glyph glyph-name="dieresis" unicode="&#xa8;" horiz-adv-x="385" 
d="M316 872h-82v82h82v-82zM137 872h-83v82h83v-82z" />
    <glyph glyph-name="degree" unicode="&#xb0;" horiz-adv-x="439" 
d="M261 728q25 0 47.5 -9.5t39 -26t26 -39t9.5 -47.5v-84q0 -25 -9.5 -47t-26 -38.5t-39 -26t-47.5 -9.5h-94q-26 0 -48 9.5t-38.5 26t-26 38.5t-9.5 47v84q0 25 9.5 47.5t26 39t38.5 26t48 9.5h94zM283 462q16 0 27.5 11.5t11.5 27.5v126q0 17 -11.5 28t-27.5 11h-138
q-16 0 -27.5 -11t-11.5 -28v-126q0 -16 11.5 -27.5t27.5 -11.5h138z" />
    <glyph glyph-name="acute" unicode="&#xb4;" horiz-adv-x="213" 
d="M68 1011h79l-34 -139h-80z" />
    <glyph glyph-name="paragraph" unicode="&#xb6;" horiz-adv-x="833" 
d="M56 605q0 25 9.5 47.5t25.5 39t38 26t48 9.5h606v-727h-82v271h-138v-271h-82v271h-304q-26 0 -48 9.5t-38 26t-25.5 38.5t-9.5 47v213zM563 353h138v291h-138v-291zM138 392q0 -16 11.5 -27.5t27.5 -11.5h304v291h-304q-16 0 -27.5 -11.5t-11.5 -27.5v-213z" />
    <glyph glyph-name="cedilla" unicode="&#xb8;" horiz-adv-x="213" 
d="M68 -32h79l-34 -139h-80z" />
    <glyph glyph-name="questiondown" unicode="&#xbf;" horiz-adv-x="675" 
d="M140 0q-26 0 -48 9.5t-38 26t-25.5 38.5t-9.5 47v194q0 25 9.5 47.5t25.5 39t38 26t48 9.5h273q16 0 27.5 11.5t11.5 27.5v48h82v-48q0 -26 -9.5 -48t-25.5 -38.5t-38.5 -26t-47.5 -9.5h-273q-16 0 -27.5 -11.5t-11.5 -27.5v-194q0 -16 11.5 -27.5t27.5 -11.5h508
q0 -25 1 -42t3 -28q2 -12 4 -20zM534 645h-82v83h82v-83z" />
    <glyph glyph-name="Agrave" unicode="&#xc0;" horiz-adv-x="836" 
d="M658 720q25 0 47 -9.5t38 -25.5t25.5 -38t9.5 -47v-600h-81v263h-558v-263h-81v600q0 25 9.5 47t25.5 38t38 25.5t47 9.5h480zM697 344v256q0 16 -11.5 27.5t-27.5 11.5h-480q-16 0 -27.5 -11.5t-11.5 -27.5v-256h558zM459 866h-80q-10 40 -17.5 70.5t-17.5 68.5h81z" />
    <glyph glyph-name="Aacute" unicode="&#xc1;" horiz-adv-x="836" 
d="M658 720q25 0 47 -9.5t38 -25.5t25.5 -38t9.5 -47v-600h-81v263h-558v-263h-81v600q0 25 9.5 47t25.5 38t38 25.5t47 9.5h480zM697 344v256q0 16 -11.5 27.5t-27.5 11.5h-480q-16 0 -27.5 -11.5t-11.5 -27.5v-256h558zM379 1004h79l-34 -139h-80z" />
    <glyph glyph-name="Acircumflex" unicode="&#xc2;" horiz-adv-x="836" 
d="M658 720q25 0 47 -9.5t38 -25.5t25.5 -38t9.5 -47v-600h-81v263h-558v-263h-81v600q0 25 9.5 47t25.5 38t38 25.5t47 9.5h480zM697 344v256q0 16 -11.5 27.5t-27.5 11.5h-480q-16 0 -27.5 -11.5t-11.5 -27.5v-256h558zM296 865l71 117h59l71 -117h-42l-58 85l-60 -85h-41
z" />
    <glyph glyph-name="Atilde" unicode="&#xc3;" horiz-adv-x="836" 
d="M658 720q25 0 47 -9.5t38 -25.5t25.5 -38t9.5 -47v-600h-81v263h-558v-263h-81v600q0 25 9.5 47t25.5 38t38 25.5t47 9.5h480zM697 344v256q0 16 -11.5 27.5t-27.5 11.5h-480q-16 0 -27.5 -11.5t-11.5 -27.5v-256h558zM515 918q17 0 33.5 4.5t32.5 12.5v-51
q-14 -5 -31 -9.5t-35 -4.5q-27 0 -52 11t-50 24.5t-51.5 25t-57.5 11.5q-12 0 -29.5 -1.5t-32.5 -6.5v47q27 9 62 9q28 0 53.5 -10t50.5 -22.5t50.5 -24t54.5 -15.5h2z" />
    <glyph glyph-name="Adieresis" unicode="&#xc4;" horiz-adv-x="836" 
d="M658 720q25 0 47 -9.5t38 -25.5t25.5 -38t9.5 -47v-600h-81v263h-558v-263h-81v600q0 25 9.5 47t25.5 38t38 25.5t47 9.5h480zM697 344v256q0 16 -11.5 27.5t-27.5 11.5h-480q-16 0 -27.5 -11.5t-11.5 -27.5v-256h558zM541 856h-82v82h82v-82zM362 856h-83v82h83v-82z
" />
    <glyph glyph-name="Aring" unicode="&#xc5;" horiz-adv-x="836" 
d="M658 720q25 0 47 -9.5t38 -25.5t25.5 -38t9.5 -47v-600h-81v263h-558v-263h-81v600q0 25 9.5 47t25.5 38t38 25.5t47 9.5h480zM697 344v256q0 16 -11.5 27.5t-27.5 11.5h-480q-16 0 -27.5 -11.5t-11.5 -27.5v-256h558zM446 982q23 0 38.5 -15.5t15.5 -37.5v-54
q0 -22 -15.5 -37.5t-38.5 -15.5h-56q-23 0 -38.5 15.5t-15.5 37.5v54q0 22 15.5 37.5t38.5 15.5h56zM451 862q9 0 9 10v60q0 10 -9 10h-66q-9 0 -9 -10v-60q0 -10 9 -10h66z" />
    <glyph glyph-name="AE" unicode="&#xc6;" horiz-adv-x="1375" 
d="M774 401h463v-82h-463v-238h576v-81h-657v263h-558v-263h-81v600q0 25 9.5 47t25.5 38t38 25.5t47 9.5h1176v-81h-576v-238zM693 600q0 16 -11.5 27.5t-27.5 11.5h-480q-16 0 -27.5 -11.5t-11.5 -27.5v-256h558v256z" />
    <glyph glyph-name="Ccedilla" unicode="&#xc7;" horiz-adv-x="822" 
d="M176 639q-16 0 -27.5 -11.5t-11.5 -27.5v-480q0 -16 11.5 -27.5t27.5 -11.5h598v-81h-323l-34 -139h-80l35 139h-196q-25 0 -47 9.5t-38 25.5t-25.5 38t-9.5 47v480q0 25 9.5 47t25.5 38t38 25.5t47 9.5h598v-81h-598z" />
    <glyph glyph-name="Egrave" unicode="&#xc8;" horiz-adv-x="766" 
d="M715 639h-576v-238h463v-82h-463v-238h576v-81h-657v720h657v-81zM424 866h-80q-10 40 -17.5 70.5t-17.5 68.5h81z" />
    <glyph glyph-name="Eacute" unicode="&#xc9;" horiz-adv-x="766" 
d="M715 639h-576v-238h463v-82h-463v-238h576v-81h-657v720h657v-81zM344 1005h79l-34 -139h-80z" />
    <glyph glyph-name="Ecircumflex" unicode="&#xca;" horiz-adv-x="766" 
d="M715 639h-576v-238h463v-82h-463v-238h576v-81h-657v720h657v-81zM261 865l71 117h59l71 -117h-42l-58 85l-60 -85h-41z" />
    <glyph glyph-name="Edieresis" unicode="&#xcb;" horiz-adv-x="766" 
d="M715 639h-576v-238h463v-82h-463v-238h576v-81h-657v720h657v-81zM506 866h-82v82h82v-82zM327 866h-83v82h83v-82z" />
    <glyph glyph-name="Igrave" unicode="&#xcc;" horiz-adv-x="220" 
d="M57 720h81v-720h-81v720zM151 866h-80q-10 40 -17.5 70.5t-17.5 68.5h81z" />
    <glyph glyph-name="Iacute" unicode="&#xcd;" horiz-adv-x="220" 
d="M57 720h81v-720h-81v720zM71 1005h79l-34 -139h-80z" />
    <glyph glyph-name="Icircumflex" unicode="&#xce;" horiz-adv-x="220" 
d="M57 720h81v-720h-81v720zM-11 865l71 117h59l71 -117h-42l-58 85l-60 -85h-41z" />
    <glyph glyph-name="Idieresis" unicode="&#xcf;" horiz-adv-x="220" 
d="M57 720h81v-720h-81v720zM234 866h-82v82h82v-82zM55 866h-83v82h83v-82z" />
    <glyph glyph-name="Ntilde" unicode="&#xd1;" horiz-adv-x="832" 
d="M695 720h81v-720h-111l-528 628v-628h-81v720h111l528 -628v628zM513 918q17 0 33.5 4.5t32.5 12.5v-51q-14 -5 -31 -9.5t-35 -4.5q-27 0 -52 11t-50 24.5t-51.5 25t-57.5 11.5q-12 0 -29.5 -1.5t-32.5 -6.5v47q27 9 62 9q28 0 53.5 -10t50.5 -22.5t50.5 -24t54.5 -15.5
h2z" />
    <glyph glyph-name="Ograve" unicode="&#xd2;" 
d="M654 720q25 0 47 -9.5t38 -25.5t25.5 -38t9.5 -47v-480q0 -25 -9.5 -47t-25.5 -38t-38 -25.5t-47 -9.5h-480q-25 0 -47 9.5t-38 25.5t-25.5 38t-9.5 47v480q0 25 9.5 47t25.5 38t38 25.5t47 9.5h480zM654 81q16 0 27.5 11.5t11.5 27.5v480q0 16 -11.5 27.5t-27.5 11.5
h-480q-16 0 -27.5 -11.5t-11.5 -27.5v-480q0 -16 11.5 -27.5t27.5 -11.5h480zM455 866h-80q-10 40 -17.5 70.5t-17.5 68.5h81z" />
    <glyph glyph-name="Oacute" unicode="&#xd3;" 
d="M654 720q25 0 47 -9.5t38 -25.5t25.5 -38t9.5 -47v-480q0 -25 -9.5 -47t-25.5 -38t-38 -25.5t-47 -9.5h-480q-25 0 -47 9.5t-38 25.5t-25.5 38t-9.5 47v480q0 25 9.5 47t25.5 38t38 25.5t47 9.5h480zM654 81q16 0 27.5 11.5t11.5 27.5v480q0 16 -11.5 27.5t-27.5 11.5
h-480q-16 0 -27.5 -11.5t-11.5 -27.5v-480q0 -16 11.5 -27.5t27.5 -11.5h480zM375 1005h79l-34 -139h-80z" />
    <glyph glyph-name="Ocircumflex" unicode="&#xd4;" 
d="M654 720q25 0 47 -9.5t38 -25.5t25.5 -38t9.5 -47v-480q0 -25 -9.5 -47t-25.5 -38t-38 -25.5t-47 -9.5h-480q-25 0 -47 9.5t-38 25.5t-25.5 38t-9.5 47v480q0 25 9.5 47t25.5 38t38 25.5t47 9.5h480zM654 81q16 0 27.5 11.5t11.5 27.5v480q0 16 -11.5 27.5t-27.5 11.5
h-480q-16 0 -27.5 -11.5t-11.5 -27.5v-480q0 -16 11.5 -27.5t27.5 -11.5h480zM292 865l71 117h59l71 -117h-42l-58 85l-60 -85h-41z" />
    <glyph glyph-name="Otilde" unicode="&#xd5;" 
d="M654 720q25 0 47 -9.5t38 -25.5t25.5 -38t9.5 -47v-480q0 -25 -9.5 -47t-25.5 -38t-38 -25.5t-47 -9.5h-480q-25 0 -47 9.5t-38 25.5t-25.5 38t-9.5 47v480q0 25 9.5 47t25.5 38t38 25.5t47 9.5h480zM654 81q16 0 27.5 11.5t11.5 27.5v480q0 16 -11.5 27.5t-27.5 11.5
h-480q-16 0 -27.5 -11.5t-11.5 -27.5v-480q0 -16 11.5 -27.5t27.5 -11.5h480zM511 918q17 0 33.5 4.5t32.5 12.5v-51q-14 -5 -31 -9.5t-35 -4.5q-27 0 -52 11t-50 24.5t-51.5 25t-57.5 11.5q-12 0 -29.5 -1.5t-32.5 -6.5v47q27 9 62 9q28 0 53.5 -10t50.5 -22.5t50.5 -24
t54.5 -15.5h2z" />
    <glyph glyph-name="Odieresis" unicode="&#xd6;" 
d="M654 720q25 0 47 -9.5t38 -25.5t25.5 -38t9.5 -47v-480q0 -25 -9.5 -47t-25.5 -38t-38 -25.5t-47 -9.5h-480q-25 0 -47 9.5t-38 25.5t-25.5 38t-9.5 47v480q0 25 9.5 47t25.5 38t38 25.5t47 9.5h480zM654 81q16 0 27.5 11.5t11.5 27.5v480q0 16 -11.5 27.5t-27.5 11.5
h-480q-16 0 -27.5 -11.5t-11.5 -27.5v-480q0 -16 11.5 -27.5t27.5 -11.5h480zM537 866h-82v82h82v-82zM358 866h-83v82h83v-82z" />
    <glyph glyph-name="multiply" unicode="&#xd7;" horiz-adv-x="546" 
d="M266 362q23 32 52.5 71.5t53.5 72.5h106l-158 -205l158 -206h-106l-106 144q-23 -32 -52 -71.5t-53 -72.5h-107l158 206q-38 49 -79.5 102t-79.5 103h108z" />
    <glyph glyph-name="Ugrave" unicode="&#xd9;" 
d="M693 720h81v-600q0 -25 -9.5 -47t-25.5 -38t-38 -25.5t-47 -9.5h-480q-25 0 -47 9.5t-38 25.5t-25.5 38t-9.5 47v600h81v-600q0 -16 11.5 -27.5t27.5 -11.5h480q16 0 27.5 11.5t11.5 27.5v600zM455 866h-80q-10 40 -17.5 70.5t-17.5 68.5h81z" />
    <glyph glyph-name="Uacute" unicode="&#xda;" 
d="M693 720h81v-600q0 -25 -9.5 -47t-25.5 -38t-38 -25.5t-47 -9.5h-480q-25 0 -47 9.5t-38 25.5t-25.5 38t-9.5 47v600h81v-600q0 -16 11.5 -27.5t27.5 -11.5h480q16 0 27.5 11.5t11.5 27.5v600zM375 1005h79l-34 -139h-80z" />
    <glyph glyph-name="Ucircumflex" unicode="&#xdb;" 
d="M693 720h81v-600q0 -25 -9.5 -47t-25.5 -38t-38 -25.5t-47 -9.5h-480q-25 0 -47 9.5t-38 25.5t-25.5 38t-9.5 47v600h81v-600q0 -16 11.5 -27.5t27.5 -11.5h480q16 0 27.5 11.5t11.5 27.5v600zM292 865l71 117h59l71 -117h-42l-58 85l-60 -85h-41z" />
    <glyph glyph-name="Udieresis" unicode="&#xdc;" 
d="M693 720h81v-600q0 -25 -9.5 -47t-25.5 -38t-38 -25.5t-47 -9.5h-480q-25 0 -47 9.5t-38 25.5t-25.5 38t-9.5 47v600h81v-600q0 -16 11.5 -27.5t27.5 -11.5h480q16 0 27.5 11.5t11.5 27.5v600zM537 866h-82v82h82v-82zM358 866h-83v82h83v-82z" />
    <glyph glyph-name="Yacute" unicode="&#xdd;" horiz-adv-x="806" 
d="M760 720l-331 -449v-271h-81v271q-81 111 -165 224.5t-166 224.5h93l279 -352q66 85 138 176t138 176h95zM364 1005h79l-34 -139h-80z" />
    <glyph glyph-name="germandbls" unicode="&#xdf;" horiz-adv-x="833" 
d="M784 455q0 -40 -30 -81q30 -39 30 -80v-173q0 -25 -9.5 -47t-26 -38.5t-38.5 -26t-47 -9.5h-379v82h379q16 0 27.5 11.5t11.5 27.5v173q0 16 -11.5 27.5t-27.5 11.5h-379v71h379q16 0 27.5 11.5t11.5 27.5v162q0 16 -11.5 27.5t-27.5 11.5h-485q-16 0 -27.5 -11.5
t-11.5 -27.5v-605h-82v606q0 25 9.5 47.5t25.5 39t38 26t48 9.5h485q21 0 40.5 -8.5t35.5 -23t27.5 -33t17.5 -37.5v-171z" />
    <glyph glyph-name="agrave" unicode="&#xe0;" horiz-adv-x="725" 
d="M521 580q25 0 47.5 -9.5t39 -26t26 -38.5t9.5 -47v-459h-470q-25 0 -47 9.5t-38.5 26t-26 38.5t-9.5 47v210h508v128q0 16 -11 27.5t-28 11.5h-469v82h469zM560 249h-426v-128q0 -16 11.5 -27.5t27.5 -11.5h387v167zM403 764h-80q-10 40 -17.5 70.5t-17.5 68.5h81z" />
    <glyph glyph-name="aacute" unicode="&#xe1;" horiz-adv-x="725" 
d="M521 580q25 0 47.5 -9.5t39 -26t26 -38.5t9.5 -47v-459h-470q-25 0 -47 9.5t-38.5 26t-26 38.5t-9.5 47v210h508v128q0 16 -11 27.5t-28 11.5h-469v82h469zM560 249h-426v-128q0 -16 11.5 -27.5t27.5 -11.5h387v167zM323 903h79l-34 -139h-80z" />
    <glyph glyph-name="acircumflex" unicode="&#xe2;" horiz-adv-x="725" 
d="M521 580q25 0 47.5 -9.5t39 -26t26 -38.5t9.5 -47v-459h-470q-25 0 -47 9.5t-38.5 26t-26 38.5t-9.5 47v210h508v128q0 16 -11 27.5t-28 11.5h-469v82h469zM560 249h-426v-128q0 -16 11.5 -27.5t27.5 -11.5h387v167zM240 764l71 117h59l71 -117h-42l-58 85l-60 -85h-41z
" />
    <glyph glyph-name="atilde" unicode="&#xe3;" horiz-adv-x="725" 
d="M521 580q25 0 47.5 -9.5t39 -26t26 -38.5t9.5 -47v-459h-470q-25 0 -47 9.5t-38.5 26t-26 38.5t-9.5 47v210h508v128q0 16 -11 27.5t-28 11.5h-469v82h469zM560 249h-426v-128q0 -16 11.5 -27.5t27.5 -11.5h387v167zM459 815q17 0 33.5 4.5t32.5 12.5v-51
q-14 -5 -31 -9.5t-35 -4.5q-27 0 -52 11t-50 24.5t-51.5 25t-57.5 11.5q-12 0 -29.5 -1.5t-32.5 -6.5v47q27 9 62 9q28 0 53.5 -10t50.5 -22.5t50.5 -24t54.5 -15.5h2z" />
    <glyph glyph-name="adieresis" unicode="&#xe4;" horiz-adv-x="725" 
d="M521 580q25 0 47.5 -9.5t39 -26t26 -38.5t9.5 -47v-459h-470q-25 0 -47 9.5t-38.5 26t-26 38.5t-9.5 47v210h508v128q0 16 -11 27.5t-28 11.5h-469v82h469zM560 249h-426v-128q0 -16 11.5 -27.5t27.5 -11.5h387v167zM485 764h-82v82h82v-82zM306 764h-83v82h83v-82z" />
    <glyph glyph-name="aring" unicode="&#xe5;" horiz-adv-x="725" 
d="M521 580q25 0 47.5 -9.5t39 -26t26 -38.5t9.5 -47v-459h-470q-25 0 -47 9.5t-38.5 26t-26 38.5t-9.5 47v210h508v128q0 16 -11 27.5t-28 11.5h-469v82h469zM560 249h-426v-128q0 -16 11.5 -27.5t27.5 -11.5h387v167zM390 879q23 0 38.5 -15.5t15.5 -37.5v-54
q0 -22 -15.5 -37.5t-38.5 -15.5h-56q-23 0 -38.5 15.5t-15.5 37.5v54q0 22 15.5 37.5t38.5 15.5h56zM395 759q9 0 9 10v60q0 10 -9 10h-66q-9 0 -9 -10v-60q0 -10 9 -10h66z" />
    <glyph glyph-name="ae" unicode="&#xe6;" horiz-adv-x="1178" 
d="M1030 580q25 0 47.5 -9.5t38.5 -26t25.5 -38.5t9.5 -47v-210h-508v-132q2 -15 13 -25t26 -10h469v-82h-977q-26 0 -48 9.5t-38 26t-25.5 38.5t-9.5 47v210h508v128q0 16 -11.5 27.5t-27.5 11.5h-469v82h977zM561 249h-426v-128q0 -16 11.5 -27.5t27.5 -11.5h387v167z
M1069 331v128q0 16 -11.5 27.5t-27.5 11.5h-348q-16 0 -27.5 -11.5t-11.5 -27.5v-128h426z" />
    <glyph glyph-name="ccedilla" unicode="&#xe7;" horiz-adv-x="693" 
d="M642 82v-82h-256l-34 -139h-80l35 139h-135q-25 0 -47 9.5t-38.5 26t-26 38.5t-9.5 47v338q0 25 9.5 47t26 38.5t38.5 26t47 9.5h468v-82h-468q-16 0 -27.5 -11.5t-11.5 -27.5v-338q0 -16 11.5 -27.5t27.5 -11.5h470z" />
    <glyph glyph-name="egrave" unicode="&#xe8;" horiz-adv-x="638" 
d="M520 580q25 0 47.5 -9.5t39 -26t26 -38.5t9.5 -47v-210h-509v-128q0 -16 11.5 -27.5t27.5 -11.5h470v-82h-470q-25 0 -47 9.5t-38.5 26t-26 38.5t-9.5 47v338q0 25 9.5 47t26 38.5t38.5 26t47 9.5h348zM559 331v128q0 16 -11 27.5t-28 11.5h-348q-16 0 -27.5 -11.5
t-11.5 -27.5v-128h426zM360 764h-80q-10 40 -17.5 70.5t-17.5 68.5h81z" />
    <glyph glyph-name="eacute" unicode="&#xe9;" horiz-adv-x="638" 
d="M520 580q25 0 47.5 -9.5t39 -26t26 -38.5t9.5 -47v-210h-509v-128q0 -16 11.5 -27.5t27.5 -11.5h470v-82h-470q-25 0 -47 9.5t-38.5 26t-26 38.5t-9.5 47v338q0 25 9.5 47t26 38.5t38.5 26t47 9.5h348zM559 331v128q0 16 -11 27.5t-28 11.5h-348q-16 0 -27.5 -11.5
t-11.5 -27.5v-128h426zM280 904h79l-34 -139h-80z" />
    <glyph glyph-name="ecircumflex" unicode="&#xea;" horiz-adv-x="638" 
d="M520 580q25 0 47.5 -9.5t39 -26t26 -38.5t9.5 -47v-210h-509v-128q0 -16 11.5 -27.5t27.5 -11.5h470v-82h-470q-25 0 -47 9.5t-38.5 26t-26 38.5t-9.5 47v338q0 25 9.5 47t26 38.5t38.5 26t47 9.5h348zM559 331v128q0 16 -11 27.5t-28 11.5h-348q-16 0 -27.5 -11.5
t-11.5 -27.5v-128h426zM197 764l71 117h59l71 -117h-42l-58 85l-60 -85h-41z" />
    <glyph glyph-name="edieresis" unicode="&#xeb;" horiz-adv-x="638" 
d="M520 580q25 0 47.5 -9.5t39 -26t26 -38.5t9.5 -47v-210h-509v-128q0 -16 11.5 -27.5t27.5 -11.5h470v-82h-470q-25 0 -47 9.5t-38.5 26t-26 38.5t-9.5 47v338q0 25 9.5 47t26 38.5t38.5 26t47 9.5h348zM559 331v128q0 16 -11 27.5t-28 11.5h-348q-16 0 -27.5 -11.5
t-11.5 -27.5v-128h426zM442 764h-82v82h82v-82zM263 764h-83v82h83v-82z" />
    <glyph glyph-name="igrave" unicode="&#xec;" horiz-adv-x="214" 
d="M56 580h82v-580h-82v580zM132 765h-80q-10 40 -17.5 70.5t-17.5 68.5h81z" />
    <glyph glyph-name="iacute" unicode="&#xed;" horiz-adv-x="214" 
d="M52 580h82v-580h-82v580zM84 903h79l-34 -139h-80z" />
    <glyph glyph-name="icircumflex" unicode="&#xee;" horiz-adv-x="214" 
d="M52 580h82v-580h-82v580zM-14 764l71 117h59l71 -117h-42l-58 85l-60 -85h-41z" />
    <glyph glyph-name="idieresis" unicode="&#xef;" horiz-adv-x="214" 
d="M55 580h82v-580h-82v580zM231 766h-82v82h82v-82zM52 766h-83v82h83v-82z" />
    <glyph glyph-name="ntilde" unicode="&#xf1;" horiz-adv-x="708" 
d="M524 580q25 0 47 -9.5t38.5 -26t26 -38.5t9.5 -47v-459h-82v459q0 16 -11.5 27.5t-27.5 11.5h-348q-17 0 -28.5 -11.5t-11.5 -27.5v-459h-82v580h470zM451 814q17 0 33.5 4.5t32.5 12.5v-51q-14 -5 -31 -9.5t-35 -4.5q-27 0 -52 11t-50 24.5t-51.5 25t-57.5 11.5
q-12 0 -29.5 -1.5t-32.5 -6.5v47q27 9 62 9q28 0 53.5 -10t50.5 -22.5t50.5 -24t54.5 -15.5h2z" />
    <glyph glyph-name="ograve" unicode="&#xf2;" horiz-adv-x="692" 
d="M520 580q25 0 47.5 -9.5t39 -26t26 -38.5t9.5 -47v-338q0 -25 -9.5 -47t-26 -38.5t-39 -26t-47.5 -9.5h-348q-25 0 -47 9.5t-38.5 26t-26 38.5t-9.5 47v338q0 25 9.5 47t26 38.5t38.5 26t47 9.5h348zM172 498q-16 0 -27.5 -11.5t-11.5 -27.5v-338q0 -16 11.5 -27.5
t27.5 -11.5h348q17 0 28 11.5t11 27.5v338q0 16 -11 27.5t-28 11.5h-348zM387 765h-80q-10 40 -17.5 70.5t-17.5 68.5h81z" />
    <glyph glyph-name="oacute" unicode="&#xf3;" horiz-adv-x="692" 
d="M520 580q25 0 47.5 -9.5t39 -26t26 -38.5t9.5 -47v-338q0 -25 -9.5 -47t-26 -38.5t-39 -26t-47.5 -9.5h-348q-25 0 -47 9.5t-38.5 26t-26 38.5t-9.5 47v338q0 25 9.5 47t26 38.5t38.5 26t47 9.5h348zM172 498q-16 0 -27.5 -11.5t-11.5 -27.5v-338q0 -16 11.5 -27.5
t27.5 -11.5h348q17 0 28 11.5t11 27.5v338q0 16 -11 27.5t-28 11.5h-348zM307 904h79l-34 -139h-80z" />
    <glyph glyph-name="ocircumflex" unicode="&#xf4;" horiz-adv-x="692" 
d="M520 580q25 0 47.5 -9.5t39 -26t26 -38.5t9.5 -47v-338q0 -25 -9.5 -47t-26 -38.5t-39 -26t-47.5 -9.5h-348q-25 0 -47 9.5t-38.5 26t-26 38.5t-9.5 47v338q0 25 9.5 47t26 38.5t38.5 26t47 9.5h348zM172 498q-16 0 -27.5 -11.5t-11.5 -27.5v-338q0 -16 11.5 -27.5
t27.5 -11.5h348q17 0 28 11.5t11 27.5v338q0 16 -11 27.5t-28 11.5h-348zM224 764l71 117h59l71 -117h-42l-58 85l-60 -85h-41z" />
    <glyph glyph-name="otilde" unicode="&#xf5;" horiz-adv-x="692" 
d="M520 580q25 0 47.5 -9.5t39 -26t26 -38.5t9.5 -47v-338q0 -25 -9.5 -47t-26 -38.5t-39 -26t-47.5 -9.5h-348q-25 0 -47 9.5t-38.5 26t-26 38.5t-9.5 47v338q0 25 9.5 47t26 38.5t38.5 26t47 9.5h348zM172 498q-16 0 -27.5 -11.5t-11.5 -27.5v-338q0 -16 11.5 -27.5
t27.5 -11.5h348q17 0 28 11.5t11 27.5v338q0 16 -11 27.5t-28 11.5h-348zM443 814q17 0 33.5 4.5t32.5 12.5v-51q-14 -5 -31 -9.5t-35 -4.5q-27 0 -52 11t-50 24.5t-51.5 25t-57.5 11.5q-12 0 -29.5 -1.5t-32.5 -6.5v47q27 9 62 9q28 0 53.5 -10t50.5 -22.5t50.5 -24
t54.5 -15.5h2z" />
    <glyph glyph-name="odieresis" unicode="&#xf6;" horiz-adv-x="692" 
d="M520 580q25 0 47.5 -9.5t39 -26t26 -38.5t9.5 -47v-338q0 -25 -9.5 -47t-26 -38.5t-39 -26t-47.5 -9.5h-348q-25 0 -47 9.5t-38.5 26t-26 38.5t-9.5 47v338q0 25 9.5 47t26 38.5t38.5 26t47 9.5h348zM172 498q-16 0 -27.5 -11.5t-11.5 -27.5v-338q0 -16 11.5 -27.5
t27.5 -11.5h348q17 0 28 11.5t11 27.5v338q0 16 -11 27.5t-28 11.5h-348zM469 766h-82v82h82v-82zM290 766h-83v82h83v-82z" />
    <glyph glyph-name="divide" unicode="&#xf7;" horiz-adv-x="508" 
d="M492 255h-474v82h474v-82zM297 83v-82h-82v82h82zM297 497h-82v82h82v-82z" />
    <glyph glyph-name="ugrave" unicode="&#xf9;" horiz-adv-x="695" 
d="M644 580v-459q0 -25 -9.5 -47t-26 -38.5t-39 -26t-47.5 -9.5h-348q-25 0 -47 9.5t-38.5 26t-26 38.5t-9.5 47v459h82v-459q0 -16 11.5 -27.5t27.5 -11.5h348q17 0 28.5 11.5t11.5 27.5v459h82zM388 765h-80q-10 40 -17.5 70.5t-17.5 68.5h81z" />
    <glyph glyph-name="uacute" unicode="&#xfa;" horiz-adv-x="695" 
d="M644 580v-459q0 -25 -9.5 -47t-26 -38.5t-39 -26t-47.5 -9.5h-348q-25 0 -47 9.5t-38.5 26t-26 38.5t-9.5 47v459h82v-459q0 -16 11.5 -27.5t27.5 -11.5h348q17 0 28.5 11.5t11.5 27.5v459h82zM308 904h79l-34 -139h-80z" />
    <glyph glyph-name="ucircumflex" unicode="&#xfb;" horiz-adv-x="695" 
d="M644 580v-459q0 -25 -9.5 -47t-26 -38.5t-39 -26t-47.5 -9.5h-348q-25 0 -47 9.5t-38.5 26t-26 38.5t-9.5 47v459h82v-459q0 -16 11.5 -27.5t27.5 -11.5h348q17 0 28.5 11.5t11.5 27.5v459h82zM225 765l71 117h59l71 -117h-42l-58 85l-60 -85h-41z" />
    <glyph glyph-name="udieresis" unicode="&#xfc;" horiz-adv-x="695" 
d="M644 580v-459q0 -25 -9.5 -47t-26 -38.5t-39 -26t-47.5 -9.5h-348q-25 0 -47 9.5t-38.5 26t-26 38.5t-9.5 47v459h82v-459q0 -16 11.5 -27.5t27.5 -11.5h348q17 0 28.5 11.5t11.5 27.5v459h82zM470 764h-82v82h82v-82zM291 764h-83v82h83v-82z" />
    <glyph glyph-name="yacute" unicode="&#xfd;" horiz-adv-x="688" 
d="M632 -108q0 -26 -9.5 -48t-25.5 -38.5t-38.5 -26t-47.5 -9.5h-362v83h362q16 0 27.5 11.5t11.5 27.5v108h-387q-25 0 -47 9.5t-38.5 26t-26 38.5t-9.5 47v457h82v-457q0 -16 11.5 -27.5t27.5 -11.5h348q16 0 27.5 11.5t11.5 27.5v457h82v-686zM305 904h79l-34 -139h-80z
" />
    <glyph glyph-name="ydieresis" unicode="&#xff;" horiz-adv-x="688" 
d="M632 -108q0 -26 -9.5 -48t-25.5 -38.5t-38.5 -26t-47.5 -9.5h-362v83h362q16 0 27.5 11.5t11.5 27.5v108h-387q-25 0 -47 9.5t-38.5 26t-26 38.5t-9.5 47v457h82v-457q0 -16 11.5 -27.5t27.5 -11.5h348q16 0 27.5 11.5t11.5 27.5v457h82v-686zM467 766h-82v82h82v-82z
M288 766h-83v82h83v-82z" />
    <glyph glyph-name="dotlessi" unicode="&#x131;" horiz-adv-x="214" 
d="M52 580h82v-580h-82v580z" />
    <glyph glyph-name="OE" unicode="&#x152;" horiz-adv-x="1374" 
d="M773 401h463v-82h-463v-238h576v-81h-1176q-25 0 -47 9.5t-38 25.5t-25.5 38t-9.5 47v480q0 25 9.5 47t25.5 38t38 25.5t47 9.5h1176v-81h-576v-238zM653 81q16 0 27.5 11.5t11.5 27.5v480q0 16 -11.5 27.5t-27.5 11.5h-480q-16 0 -27.5 -11.5t-11.5 -27.5v-480
q0 -16 11.5 -27.5t27.5 -11.5h480z" />
    <glyph glyph-name="oe" unicode="&#x153;" horiz-adv-x="1177" 
d="M642 249v-128q0 -16 11.5 -27.5t27.5 -11.5h469v-82h-977q-26 0 -48 9.5t-38 26t-25.5 38.5t-9.5 47v338q0 25 9.5 47t25.5 38.5t38 26t48 9.5h856q25 0 47.5 -9.5t38.5 -26t25.5 -38.5t9.5 -47v-210h-508zM681 498q-16 0 -27.5 -11.5t-11.5 -27.5v-128h426v128
q0 16 -11.5 27.5t-27.5 11.5h-348zM521 82q16 0 27.5 11.5t11.5 27.5v338q0 16 -11.5 27.5t-27.5 11.5h-348q-16 0 -27.5 -11.5t-11.5 -27.5v-338q0 -16 11.5 -27.5t27.5 -11.5h348z" />
    <glyph glyph-name="Scaron" unicode="&#x160;" horiz-adv-x="822" 
d="M771 572h-81v28q0 16 -11.5 27.5t-27.5 11.5h-480q-16 0 -27.5 -11.5t-11.5 -27.5v-161q0 -16 11.5 -27t27.5 -11h480q25 0 47 -9.5t38 -26t25.5 -38t9.5 -46.5v-161q0 -25 -9.5 -47t-25.5 -38t-38 -25.5t-47 -9.5h-480q-25 0 -47 9.5t-38 25.5t-25.5 38t-9.5 47v28h81
v-28q0 -16 11.5 -27.5t27.5 -11.5h480q16 0 27.5 11.5t11.5 27.5v161q0 16 -11.5 27t-27.5 11h-480q-25 0 -47 9.5t-38 26t-25.5 38t-9.5 46.5v161q0 25 9.5 47t25.5 38t38 25.5t47 9.5h480q25 0 47 -9.5t38 -25.5t25.5 -38t9.5 -47v-28zM331 982l60 -85l58 85h41l-70 -117
h-59l-72 117h42z" />
    <glyph glyph-name="scaron" unicode="&#x161;" horiz-adv-x="687" 
d="M639 451h-83v8q0 16 -11.5 27.5t-27.5 11.5h-348q-16 0 -27.5 -11.5t-11.5 -27.5v-89q0 -16 11.5 -27.5t27.5 -11.5h348q25 0 47.5 -9.5t39 -26t26 -38.5t9.5 -47v-89q0 -25 -9.5 -47t-26 -38.5t-39 -26t-47.5 -9.5h-348q-25 0 -47 9.5t-38.5 26t-26 38.5t-9.5 47v8h82
v-8q0 -16 11.5 -27.5t27.5 -11.5h348q16 0 27.5 11.5t11.5 27.5v89q0 16 -11.5 27.5t-27.5 11.5h-348q-25 0 -47 9.5t-38.5 26t-26 38.5t-9.5 47v89q0 25 9.5 47t26 38.5t38.5 26t47 9.5h348q25 0 47.5 -9.5t39 -26t26 -38.5t9.5 -47v-8zM263 881l60 -85l58 85h41l-70 -117
h-59l-72 117h42z" />
    <glyph glyph-name="Ydieresis" unicode="&#x178;" horiz-adv-x="806" 
d="M760 720l-331 -449v-271h-81v271q-81 111 -165 224.5t-166 224.5h93l279 -352q66 85 138 176t138 176h95zM526 866h-82v82h82v-82zM347 866h-83v82h83v-82z" />
    <glyph glyph-name="Zcaron" unicode="&#x17d;" horiz-adv-x="821" 
d="M51 720h720v-111l-628 -528h628v-81h-720v111l628 528h-628v81zM330 982l60 -85l58 85h41l-70 -117h-59l-72 117h42z" />
    <glyph glyph-name="zcaron" unicode="&#x17e;" horiz-adv-x="698" 
d="M54 580h591v-112l-501 -386h501v-82h-591v112l501 386h-501v82zM269 884l60 -85l58 85h41l-70 -117h-59l-72 117h42z" />
    <glyph glyph-name="circumflex" unicode="&#x2c6;" horiz-adv-x="300" 
d="M28 871l71 117h59l71 -117h-42l-58 85l-60 -85h-41z" />
    <glyph glyph-name="caron" unicode="&#x2c7;" horiz-adv-x="297" 
d="M69 988l60 -85l58 85h41l-70 -117h-59l-72 117h42z" />
    <glyph glyph-name="breve" unicode="&#x2d8;" horiz-adv-x="287" 
d="M225 939q-1 -25 -16.5 -46t-48.5 -21h-55q-32 0 -48 21t-17 46h32q0 -16 3.5 -25t17.5 -9h80q12 0 16.5 7.5t4.5 20.5v6h31z" />
    <glyph glyph-name="dotaccent" unicode="&#x2d9;" horiz-adv-x="233" 
d="M124 989q17 0 29 -11.5t12 -28.5v-36q0 -17 -12 -28.5t-29 -11.5h-38q-17 0 -29 11.5t-12 28.5v36q0 17 12 28.5t29 11.5h38z" />
    <glyph glyph-name="ring" unicode="&#x2da;" horiz-adv-x="233" 
d="M145 988q23 0 38.5 -15.5t15.5 -37.5v-54q0 -22 -15.5 -37.5t-38.5 -15.5h-56q-23 0 -38.5 15.5t-15.5 37.5v54q0 22 15.5 37.5t38.5 15.5h56zM150 868q9 0 9 10v60q0 10 -9 10h-66q-9 0 -9 -10v-60q0 -10 9 -10h66z" />
    <glyph glyph-name="tilde" unicode="&#x2dc;" horiz-adv-x="403" 
d="M296 924q17 0 33.5 4.5t32.5 12.5v-51q-14 -5 -31 -9.5t-35 -4.5q-27 0 -52 11t-50 24.5t-51.5 25t-57.5 11.5q-12 0 -29.5 -1.5t-32.5 -6.5v47q27 9 62 9q28 0 53.5 -10t50.5 -22.5t50.5 -24t54.5 -15.5h2z" />
    <glyph glyph-name="endash" unicode="&#x2013;" horiz-adv-x="708" 
d="M655 254h-601v82h601v-82z" />
    <glyph glyph-name="emdash" unicode="&#x2014;" horiz-adv-x="822" 
d="M775 254h-721v82h721v-82z" />
    <glyph glyph-name="quoteleft" unicode="&#x2018;" horiz-adv-x="168" 
d="M33 503v98q0 41 23 72.5t60 42.5v-213h-83z" />
    <glyph glyph-name="quoteright" unicode="&#x2019;" horiz-adv-x="166" 
d="M136 721v-98q0 -41 -23 -72.5t-59 -42.5v213h82z" />
    <glyph glyph-name="quotedblleft" unicode="&#x201c;" horiz-adv-x="363" 
d="M47 502v98q0 41 23 72.5t60 42.5v-213h-83zM228 502v98q0 41 22.5 72.5t59.5 42.5v-213h-82z" />
    <glyph glyph-name="quotedblright" unicode="&#x201d;" horiz-adv-x="363" 
d="M317 721v-98q0 -41 -23 -72.5t-59 -42.5v213h82zM137 721v-98q0 -41 -23 -72.5t-60 -42.5v213h83z" />
    <glyph glyph-name="bullet" unicode="&#x2022;" horiz-adv-x="371" 
d="M197 403q29 0 29 -29v-21q0 -28 -29 -28h-25q-28 0 -28 28v21q0 29 28 29h25z" />
    <glyph glyph-name="ellipsis" unicode="&#x2026;" horiz-adv-x="574" 
d="M136 0h-82v82h82v-82zM514 0h-83v82h83v-82zM325 0h-82v82h82v-82z" />
    <glyph glyph-name="Euro" unicode="&#x20ac;" horiz-adv-x="799" 
d="M761 82v-82h-499q-26 0 -48 9.5t-38.5 26t-26 38.5t-9.5 47v109h-105v82h105v103h-105v83h105v101q0 25 9.5 47.5t26 39t38.5 26t48 9.5h499v-83h-499q-16 0 -27.5 -11.5t-11.5 -27.5v-101h424v-83h-424v-103h424v-82h-424v-109q0 -16 11.5 -27.5t27.5 -11.5h499z" />
    <glyph glyph-name="minus" unicode="&#x2212;" horiz-adv-x="517" 
d="M449 255h-390v82h390v-82z" />
    <glyph glyph-name="uniE000" unicode="&#xe000;" horiz-adv-x="0" 
 />
    <glyph glyph-name="seven.alt" unicode="&#xe002;" horiz-adv-x="771" 
d="M50 0h4l-8 -11zM773 721l-611 -721h-108l543 638h-547v83h723z" />
    <glyph glyph-name="nine.alt" unicode="&#xe003;" horiz-adv-x="784" 
d="M619 719q25 0 47 -9.5t38.5 -26t26 -39t9.5 -47.5v-597h-82v264q0 16 -11.5 27.5t-27.5 11.5h-485q-26 0 -48 9.5t-38.5 26t-26 38.5t-9.5 47v173q0 25 9.5 47.5t26 39t38.5 26t48 9.5h485zM658 597q0 16 -11.5 27.5t-27.5 11.5h-485q-16 0 -27.5 -11.5t-11.5 -27.5v-173
q0 -16 11.5 -27.5t27.5 -11.5h524v212z" />
    <glyph glyph-name="two.alt" unicode="&#xe005;" horiz-adv-x="815" 
d="M669 433l-537 -273v-78h643v-82h-606q-43 0 -76 28t-43 67q0 29 -0.5 58t-0.5 58l644 327v100h-522q-16 0 -27.5 -11.5t-11.5 -27.5v-42h-83v42q0 25 9.5 47.5t26 39t38.5 26t48 9.5h485q21 0 40 -8.5t34.5 -23t27 -33t17.5 -37.5v-131z" />
    <glyph glyph-name="question.alt" unicode="&#xe006;" horiz-adv-x="667" 
d="M526 720q25 0 47 -9.5t38.5 -26t26 -39t9.5 -47.5v-194q0 -25 -9.5 -47t-26 -38.5t-38.5 -26t-47 -9.5h-200q-17 0 -28 -11.5t-11 -27.5v-93h-83v93q0 25 9.5 47.5t26 38.5t38.5 25.5t48 9.5h200q16 0 27.5 11.5t11.5 27.5v194q0 16 -11.5 27.5t-27.5 11.5h-417v-114h-82
v96q5 19 16.5 37.5t27 32.5t35 22.5t40.5 8.5h380zM204 0v82h83v-82h-83z" />
    <glyph glyph-name="four.alt" unicode="&#xe007;" horiz-adv-x="723" 
d="M705 268v-82h-112v-186h-82v186h-502v93l377 442h91v-31l-382 -422h416v157h82v-157h112z" />
    <glyph glyph-name="W.alt2" unicode="&#xe008;" horiz-adv-x="1168" 
d="M0 720h108l533 -627v349l-240 278h106l534 -627v627h82v-720h-111l-288 343v-343h-112z" />
    <glyph glyph-name="W.alt" unicode="&#xe009;" horiz-adv-x="1171" 
d="M1171 720l-610 -720h-112v343l-288 -343h-112v720h82v-627q63 75 130.5 154t136 159t136.5 159t131 155h105l-239 -278v-349q63 75 130.5 154t136 159t136.5 159t131 155h106z" />
    <glyph glyph-name="V.alt" unicode="&#xe00a;" horiz-adv-x="774" 
d="M137 721v-628q63 75 130.5 154t136 159t136 159.5t130.5 155.5h107l-611 -721h-112v721h83z" />
    <glyph glyph-name="A.alt" unicode="&#xe00b;" horiz-adv-x="774" 
d="M4 0l612 721h112v-721h-83v202h-364l-170 -202h-107zM351 285h294v344z" />
    <glyph glyph-name="A.alt2" unicode="&#xe00c;" horiz-adv-x="774" 
d="M166 721l612 -721h-108l-171 202h-362v-202h-83v721h112zM137 285h295l-295 344v-344z" />
    <glyph glyph-name="A.alt3" horiz-adv-x="827" 
d="M742 0l-105 183h-464q-24 -44 -52.5 -91.5t-53.5 -91.5h-95q49 93 97 182t95.5 177.5t95.5 178t98 182.5h94q97 -183 192.5 -360t192.5 -360h-95zM220 264h368l-183 380z" />
    <glyph glyph-name="C.alt" horiz-adv-x="822" 
d="M773 526h-81v113h-520q-16 0 -27.5 -11.5t-11.5 -27.5v-480q0 -16 11.5 -27.5t27.5 -11.5h520v113h78v-94q-6 -19 -17.5 -37t-27 -32t-34.5 -22.5t-39 -8.5h-480q-25 0 -47 9.5t-38 25.5t-25.5 38t-9.5 47v480q0 25 9.5 47t25.5 38t38 25.5t47 9.5h480q20 0 39 -8.5
t34.5 -22.5t27 -32t17.5 -37z" />
    <glyph glyph-name="I.alt" horiz-adv-x="818" 
d="M769 639h-319v-558h319v-81h-720v81h319v558h-319v81h720v-81z" />
    <glyph glyph-name="J.alt" horiz-adv-x="645" 
d="M506 720h82v-600q0 -25 -9.5 -47t-26 -38t-38 -25.5t-46.5 -9.5h-465v81h465q16 0 27 11.5t11 27.5v600z" />
    <glyph glyph-name="K.alt" horiz-adv-x="829" 
d="M694 720h81v-263q0 -16 -10 -33.5t-28.5 -32.5t-44 -24.5t-56.5 -9.5q31 0 56.5 -10t43.5 -25t28 -32.5t10 -32.5v-257h-81v278q0 15 -11.5 26.5t-27.5 11.5h-480q-16 0 -27.5 -11.5t-11.5 -26.5v-278h-81v720h81v-284q0 -16 11.5 -27t27.5 -11h481q16 0 27.5 11t11.5 27
v284z" />
    <glyph glyph-name="M.alt" horiz-adv-x="1155" 
d="M997 720q25 0 46.5 -9.5t38 -25.5t26 -38t9.5 -47v-600h-82v600q0 16 -11 27.5t-27 11.5h-383v-639h-82v600q0 16 -11 27.5t-27 11.5h-358v-639h-82v720h943z" />
    <glyph glyph-name="N.alt" horiz-adv-x="827" 
d="M54 0v720h600q25 0 47 -9.5t38 -25.5t25.5 -38t9.5 -47v-600h-81v600q0 16 -11.5 27.5t-27.5 11.5h-519v-639h-81z" />
    <glyph glyph-name="O.alt" horiz-adv-x="824" 
d="M652 720q25 0 47 -9.5t38 -25.5t25.5 -38t9.5 -47v-480q0 -25 -9.5 -47t-25.5 -38t-38 -25.5t-47 -9.5h-480q-25 0 -47 9.5t-38 25.5t-25.5 38t-9.5 47v480q0 25 9.5 47t25.5 38t38 25.5t47 9.5h480zM691 600q0 16 -11.5 27.5t-27.5 11.5h-480q-16 0 -27.5 -11.5
t-11.5 -27.5v-480q0 -16 11.5 -27.5t27.5 -11.5h480q16 0 27.5 11.5t11.5 27.5v480zM371 319v82h82v-82h-82z" />
    <glyph glyph-name="Q.alt" horiz-adv-x="868" 
d="M654 720q25 0 47 -9.5t38 -25.5t25.5 -38t9.5 -47v-480q0 -25 -9.5 -47t-25.5 -38t-38 -25.5t-47 -9.5h-199v-113h-82v113h-199q-25 0 -47 9.5t-38 25.5t-25.5 38t-9.5 47v480q0 25 9.5 47t25.5 38t38 25.5t47 9.5h480zM693 600q0 16 -11.5 27.5t-27.5 11.5h-480
q-16 0 -27.5 -11.5t-11.5 -27.5v-480q0 -16 11.5 -27.5t27.5 -11.5h480q16 0 27.5 11.5t11.5 27.5v480z" />
    <glyph glyph-name="R.alt" horiz-adv-x="826" 
d="M774 388q0 -21 -13 -36t-30 -24.5t-35.5 -14t-28.5 -4.5q11 0 29 -4.5t35.5 -14t30 -24.5t12.5 -36v-230h-81v230q0 15 -11.5 26.5t-27.5 11.5h-480q-16 0 -27.5 -11.5t-11.5 -26.5v-230h-81v720l600 -1q25 0 47 -9.5t38 -26t25.5 -38t9.5 -46.5v-211zM174 638
q-16 0 -27.5 -11.5t-11.5 -27.5v-211q0 -16 11.5 -27t27.5 -11h480q16 0 27.5 11t11.5 27v211q0 16 -11.5 27.5t-27.5 11.5h-480z" />
    <glyph glyph-name="S.alt" horiz-adv-x="812" 
d="M646 401q25 0 47 -9.5t38 -26t25.5 -38t9.5 -46.5v-161q0 -25 -9.5 -47t-25.5 -38t-38 -25.5t-47 -9.5h-600v81h600q16 0 27 11.5t11 27.5v161q0 16 -11 27t-27 11h-480q-25 0 -47 9.5t-38 26t-25.5 38t-9.5 46.5v161q0 25 9.5 47t25.5 38t38 25.5t47 9.5h600v-81h-600
q-16 0 -27.5 -11.5t-11.5 -27.5v-161q0 -16 11.5 -27t27.5 -11h480z" />
    <glyph glyph-name="V.alt2" horiz-adv-x="774" 
d="M635 720h81v-720h-111l-605 720h107l528 -628v628z" />
    <glyph glyph-name="V.alt3" horiz-adv-x="827" 
d="M773 720v-720h-600q-25 0 -47 9.5t-38 25.5t-25.5 38t-9.5 47v600h81v-600q0 -16 11.5 -27.5t27.5 -11.5h519v639h81z" />
    <glyph glyph-name="W.alt3" horiz-adv-x="1028" 
d="M164 0h-110v720h81v-628l383 457l383 -457v628h82v-720h-111l-354 421z" />
    <glyph glyph-name="W.alt4" horiz-adv-x="1155" 
d="M173 0q-25 0 -46.5 9.5t-38 25.5t-26 38t-9.5 47v600h82v-600q0 -16 11.5 -27.5t26.5 -11.5h383v639h82v-600q0 -16 11 -27.5t27 -11.5h358v639h82v-720h-943z" />
    <glyph glyph-name="X.alt" horiz-adv-x="829" 
d="M775 720v-263q0 -19 -11.5 -37t-31 -32t-44.5 -22.5t-52 -8.5q27 0 52 -8.5t44 -22.5t30.5 -32t11.5 -37v-257h-81v278q0 15 -11.5 26.5t-27.5 11.5h-479q-16 0 -27.5 -11.5t-11.5 -26.5v-278h-81v257q0 19 11.5 37t30.5 32t44 22.5t52 8.5q-27 0 -52.5 8.5t-44.5 22.5
t-30.5 32t-11.5 37v263h81v-284q0 -16 11.5 -27t27.5 -11h481q16 0 27.5 11t11.5 27v284h81z" />
    <glyph glyph-name="Y.alt" horiz-adv-x="824" 
d="M771 720v-600q0 -25 -9.5 -47t-25.5 -38t-38 -25.5t-47 -9.5h-600v81h600q16 0 27.5 11.5t11.5 27.5v161q0 16 -11.5 27t-27.5 11h-480q-25 0 -47 9.5t-38 26t-25.5 38t-9.5 46.5v281h81v-281q0 -16 11.5 -27t27.5 -11h519v319h81z" />
    <glyph glyph-name="Z.alt" horiz-adv-x="818" 
d="M649 401q16 0 27 11t11 27v161q0 16 -11 27.5t-27 11.5h-600v81h600q25 0 47 -9.5t38 -25.5t25.5 -38t9.5 -47v-161q0 -25 -9.5 -46.5t-25.5 -38t-38 -26t-47 -9.5h-480q-16 0 -27.5 -11t-11.5 -27v-161q0 -16 11.5 -27.5t27.5 -11.5h600v-81h-600q-25 0 -47 9.5
t-38 25.5t-25.5 38t-9.5 47v161q0 25 9.5 46.5t25.5 38t38 26t47 9.5h480z" />
    <glyph glyph-name="a.alt" horiz-adv-x="693" 
d="M520 580q25 0 47.5 -9.5t39 -26t26 -38.5t9.5 -47v-459h-470q-25 0 -47 9.5t-38.5 26t-26 38.5t-9.5 47v338q0 25 9.5 47t26 38.5t38.5 26t47 9.5h348zM559 82v377q0 16 -11 27.5t-28 11.5h-348q-16 0 -27.5 -11.5t-11.5 -27.5v-338q0 -16 11.5 -27.5t27.5 -11.5h387z
" />
    <glyph glyph-name="a.sc" horiz-adv-x="725" 
d="M554 580q25 0 47 -9.5t38.5 -26t26 -38.5t9.5 -47v-459h-82v160h-458v-160h-82v459q0 25 9.5 47t26 38.5t38.5 26t47 9.5h380zM593 243v216q0 16 -11.5 27.5t-27.5 11.5h-380q-16 0 -27.5 -11.5t-11.5 -27.5v-216h458z" />
    <glyph glyph-name="b.sc" horiz-adv-x="700" 
d="M615 296q18 -17 29 -40t11 -49v-86q0 -25 -9.5 -47t-26 -38.5t-38.5 -26t-47 -9.5h-480v581h448q25 0 47.5 -9.5t39 -26t26 -38.5t9.5 -47v-93q0 -14 -4 -27.5t-9 -25.5zM175 499q-16 0 -27.5 -11.5t-11.5 -27.5v-93q0 -16 11.5 -27.5t27.5 -11.5h327q16 0 27.5 11.5
t11.5 27.5v93q0 16 -11.5 27.5t-27.5 11.5h-327zM573 207q0 16 -11.5 27.5t-27.5 11.5h-359q-16 0 -27.5 -11.5t-11.5 -27.5v-86q0 -16 11.5 -27.5t27.5 -11.5h359q16 0 27.5 11.5t11.5 27.5v86z" />
    <glyph glyph-name="c.sc" horiz-adv-x="693" 
d="M172 499q-16 0 -27.5 -11.5t-11.5 -27.5v-339q0 -16 11.5 -27.5t27.5 -11.5h468v-82h-468q-25 0 -47 9.5t-38.5 26t-26 38.5t-9.5 47v339q0 25 9.5 47t26 38.5t38.5 26t47 9.5h468v-82h-468z" />
    <glyph glyph-name="d.sc" horiz-adv-x="705" 
d="M534 581q25 0 47 -9.5t38.5 -26t26 -38.5t9.5 -47v-339q0 -25 -9.5 -47t-26 -38.5t-38.5 -26t-47 -9.5h-480v581h480zM573 460q0 16 -11.5 27.5t-27.5 11.5h-359q-16 0 -27.5 -11.5t-11.5 -27.5v-339q0 -16 11.5 -27.5t27.5 -11.5h359q16 0 27.5 11.5t11.5 27.5v339z" />
    <glyph glyph-name="e.sc" horiz-adv-x="638" 
d="M581 499h-445v-168h331v-82h-331v-167h445v-82h-527v581h527v-82z" />
    <glyph glyph-name="f.sc" horiz-adv-x="591" 
d="M581 581v-82h-445v-168h331v-82h-331v-249h-82v581h527z" />
    <glyph glyph-name="g.sc" horiz-adv-x="690" 
d="M642 446h-83v14q0 16 -11 27.5t-28 11.5h-348q-16 0 -27.5 -11.5t-11.5 -27.5v-339q0 -16 11.5 -27.5t27.5 -11.5h348q17 0 28 11.5t11 27.5v96h-179v82h262v-178q0 -25 -9.5 -47t-26 -38.5t-39 -26t-47.5 -9.5h-348q-25 0 -47 9.5t-38.5 26t-26 38.5t-9.5 47v339
q0 25 9.5 47t26 38.5t38.5 26t47 9.5h348q25 0 47.5 -9.5t39 -26t26 -38.5t9.5 -47v-14z" />
    <glyph glyph-name="h.sc" horiz-adv-x="715" 
d="M662 580v-580h-82v249h-444v-249h-82v580h82v-249h444v249h82z" />
    <glyph glyph-name="i.sc" horiz-adv-x="214" 
d="M54 580h82v-580h-82v580z" />
    <glyph glyph-name="j.sc" horiz-adv-x="657" 
d="M524 580h82v-459q0 -25 -9.5 -47t-26 -38.5t-38.5 -26t-47 -9.5h-359q-25 0 -47 9.5t-38.5 26t-26 38.5t-9.5 47v48h82v-48q0 -16 11.5 -27.5t27.5 -11.5h359q16 0 27.5 11.5t11.5 27.5v459z" />
    <glyph glyph-name="k.alt" horiz-adv-x="669" 
d="M645 370q0 -20 -7.5 -40.5t-21.5 -39.5q14 -19 21.5 -39.5t7.5 -40.5v-210h-82v210q0 16 -11.5 27.5t-27.5 11.5h-388v-249h-82v770h82v-439h388q16 0 27.5 11.5t11.5 27.5v210h82v-210z" />
    <glyph glyph-name="k.sc" horiz-adv-x="682" 
d="M632 580l-263 -290l262 -290h-107l-228 249h-160v-249h-82v580h82v-249h160l228 249h108z" />
    <glyph glyph-name="l.sc" horiz-adv-x="659" 
d="M54 580h82v-498h519v-82h-601v580z" />
    <glyph glyph-name="m.sc" horiz-adv-x="824" 
d="M664 581h113v-581h-82v505q-32 -45 -67.5 -96t-72 -102.5t-72 -102.5t-68.5 -97l-279 398v-505h-82v581h110l251 -358z" />
    <glyph glyph-name="n.sc" horiz-adv-x="708" 
d="M573 580h82v-580h-111l-408 489v-489h-82v580h111l408 -488v488z" />
    <glyph glyph-name="o.sc" horiz-adv-x="692" 
d="M520 580q25 0 47.5 -9.5t39 -26t26 -38.5t9.5 -47v-338q0 -25 -9.5 -47t-26 -38.5t-39 -26t-47.5 -9.5h-348q-25 0 -47 9.5t-38.5 26t-26 38.5t-9.5 47v338q0 25 9.5 47t26 38.5t38.5 26t47 9.5h348zM520 82q17 0 28 11.5t11 27.5v338q0 16 -11 27.5t-28 11.5h-348
q-16 0 -27.5 -11.5t-11.5 -27.5v-338q0 -16 11.5 -27.5t27.5 -11.5h348z" />
    <glyph glyph-name="p.sc" horiz-adv-x="660" 
d="M524 580q25 0 47 -9.5t38.5 -26t26 -38.5t9.5 -47v-130q0 -25 -9.5 -47t-26 -38.5t-38.5 -26t-47 -9.5h-348q-8 0 -18.5 1t-21.5 3v-212h-82v580h470zM563 459q0 16 -11.5 27.5t-27.5 11.5h-348q-17 0 -28.5 -11.5t-11.5 -27.5v-130q0 -16 11.5 -27.5t28.5 -11.5h348
q16 0 27.5 11.5t11.5 27.5v130z" />
    <glyph glyph-name="q.sc" horiz-adv-x="770" 
d="M737 82v-82h-564q-25 0 -47 9.5t-38.5 26t-26 38.5t-9.5 47v338q0 25 9.5 47t26 38.5t38.5 26t47 9.5h348q25 0 47.5 -9.5t39 -26t26 -38.5t9.5 -47v-338q0 -7 -1.5 -17.5t-3.5 -21.5h99zM521 82q16 0 27.5 11.5t11.5 27.5v338q0 16 -11.5 27.5t-27.5 11.5h-348
q-16 0 -27.5 -11.5t-11.5 -27.5v-338q0 -16 11.5 -27.5t27.5 -11.5h348z" />
    <glyph glyph-name="r.sc" horiz-adv-x="700" 
d="M644 329q0 -25 -9.5 -47t-25.5 -38.5t-38.5 -26t-47.5 -9.5h-107l231 -208h-105l-228 208h-178v-208h-82v580h469q25 0 47.5 -9.5t38.5 -26t25.5 -38.5t9.5 -47v-130zM523 290q16 0 27.5 11.5t11.5 27.5v130q0 16 -11.5 27.5t-27.5 11.5h-348q-16 0 -27.5 -11.5
t-11.5 -27.5v-130q0 -16 11.5 -27.5t27.5 -11.5h348z" />
    <glyph glyph-name="s.sc" horiz-adv-x="687" 
d="M640 441h-83v18q0 16 -11.5 27.5t-27.5 11.5h-348q-16 0 -27.5 -11.5t-11.5 -27.5v-89q0 -16 11.5 -27.5t27.5 -11.5h348q25 0 47.5 -9.5t39 -26t26 -38.5t9.5 -47v-89q0 -25 -9.5 -47t-26 -38.5t-39 -26t-47.5 -9.5h-348q-25 0 -47 9.5t-38.5 26t-26 38.5t-9.5 47v18h82
v-18q0 -16 11.5 -27.5t27.5 -11.5h348q16 0 27.5 11.5t11.5 27.5v89q0 16 -11.5 27.5t-27.5 11.5h-348q-25 0 -47 9.5t-38.5 26t-26 38.5t-9.5 47v89q0 25 9.5 47t26 38.5t38.5 26t47 9.5h348q25 0 47.5 -9.5t39 -26t26 -38.5t9.5 -47v-18z" />
    <glyph glyph-name="t.sc" horiz-adv-x="644" 
d="M623 580v-82h-259v-498h-82v498h-260v82h601z" />
    <glyph glyph-name="u.sc" horiz-adv-x="695" 
d="M562 580h82v-459q0 -25 -9.5 -47t-26 -38.5t-39 -26t-47.5 -9.5h-348q-25 0 -47 9.5t-38.5 26t-26 38.5t-9.5 47v459h82v-459q0 -16 11.5 -27.5t27.5 -11.5h348q17 0 28.5 11.5t11.5 27.5v459z" />
    <glyph glyph-name="v.alt" horiz-adv-x="697" 
d="M644 580v-580h-470q-25 0 -47 9.5t-38.5 26t-26 38.5t-9.5 47v459h82v-459q0 -16 11.5 -27.5t27.5 -11.5h388v498h82z" />
    <glyph glyph-name="v.sc" horiz-adv-x="801" 
d="M672 580h96l-326 -580h-94q-82 147 -164 290.5t-163 289.5h97l277 -499z" />
    <glyph glyph-name="w.alt" horiz-adv-x="978" 
d="M175 0q-26 0 -48 9.5t-38.5 26t-26 38.5t-9.5 47v459h82v-459q0 -16 11.5 -27.5t28.5 -11.5h241q16 0 27.5 11.5t11.5 27.5v459h82v-459q0 -16 11.5 -27.5t27.5 -11.5h243q16 0 27.5 11.5t11.5 27.5v459h82v-580h-765z" />
    <glyph glyph-name="w.sc" horiz-adv-x="1078" 
d="M1052 580q-29 -75 -56.5 -147t-54.5 -143.5l-54 -143t-56 -146.5h-72l-216 467l-205 -467h-72q-60 149 -116.5 290t-115.5 290h88l179 -431l192 431h100l203 -430q19 49 40.5 104t43.5 110.5t43.5 110.5t40.5 105h88z" />
    <glyph glyph-name="x.alt" horiz-adv-x="698" 
d="M645 370q0 -20 -7.5 -40.5t-21.5 -39.5q14 -19 21.5 -39.5t7.5 -40.5v-210h-82v210q0 16 -11.5 27.5t-27.5 11.5h-348q-17 0 -28.5 -11.5t-11.5 -27.5v-210h-82v210q0 20 7.5 40.5t21.5 39.5q-14 19 -21.5 39.5t-7.5 40.5v210h82v-210q0 -16 11.5 -27.5t28.5 -11.5h348
q16 0 27.5 11.5t11.5 27.5v210h82v-210z" />
    <glyph glyph-name="x.sc" horiz-adv-x="692" 
d="M638 580l-242 -284l243 -296h-108l-189 233q-44 -54 -93.5 -116t-94.5 -117h-108l242 296l-242 284h108l188 -219l188 219h108z" />
    <glyph glyph-name="y.sc" horiz-adv-x="688" 
d="M645 580l-272 -380v-200h-83v200l-272 380h96l217 -283l217 283h97z" />
    <glyph glyph-name="z.alt" horiz-adv-x="692" 
d="M172 249q-16 0 -27.5 -11.5t-11.5 -27.5v-89q0 -16 11.5 -27.5t27.5 -11.5h470v-82h-470q-25 0 -47 9.5t-38.5 26t-26 38.5t-9.5 47v89q0 25 9.5 47t26 38.5t38.5 26t47 9.5h348q17 0 28 11.5t11 27.5v89q0 16 -11 27.5t-28 11.5h-469v82h469q25 0 47.5 -9.5t39 -26
t26 -38.5t9.5 -47v-89q0 -25 -9.5 -47t-26 -38.5t-39 -26t-47.5 -9.5h-348z" />
    <glyph glyph-name="z.sc" horiz-adv-x="698" 
d="M54 580h591v-112l-501 -386h501v-82h-591v112l501 386h-501v82z" />
    </font>
</defs>
</svg>
